<?xml version="1.0" standalone="no"?><!-- Generator: Gravit.io --><svg xmlns="http://www.w3.org/2000/svg" xmlns:xlink="http://www.w3.org/1999/xlink" style="isolation:isolate" viewBox="0 0 50 50" width="50" height="50"><defs><clipPath id="_clipPath_spKO0xvUV8JQda18KuSfmQELYFPpBSJi"><rect width="50" height="50"/></clipPath></defs><g clip-path="url(#_clipPath_spKO0xvUV8JQda18KuSfmQELYFPpBSJi)"><g><linearGradient id="_lgradient_5" x1="0.045399999999999885" y1="0.9917999999999999" x2="1.0164" y2="0.025800000000000156" gradientTransform="matrix(50,0,0,50,0,0)" gradientUnits="userSpaceOnUse"><stop offset="0%" stop-opacity="1" style="stop-color:rgb(209,221,240)"/><stop offset="25.8824%" stop-opacity="1" style="stop-color:rgb(232,238,247)"/><stop offset="100%" stop-opacity="1" style="stop-color:rgb(255,255,255)"/></linearGradient><path d=" M 0 0 L 50 0 L 50 50 L 0 50 L 0 0 Z  M 20.48 18.64 L 24.41 18.64 L 24.41 15.74 C 24.41 10.41 25.04 7.03 32.25 7.03 C 33.95 7.03 35.65 7.03 37.35 7.03 L 37.35 13.21 L 34.52 13.21 C 32.28 13.21 31.92 14.1 31.92 15.74 L 31.92 18.64 L 37.39 18.64 L 36.83 24.79 L 31.92 24.79 L 31.92 42.97 L 24.41 42.97 L 24.41 24.79 L 20.48 24.79 L 20.48 18.64 Z " fill-rule="evenodd" fill="url(#_lgradient_5)"/></g></g></svg>