<?xml version="1.0" standalone="no"?><!-- Generator: Gravit.io --><svg xmlns="http://www.w3.org/2000/svg" xmlns:xlink="http://www.w3.org/1999/xlink" style="isolation:isolate" viewBox="0 0 50 50" width="50" height="50"><defs><clipPath id="_clipPath_7cqvYlQvgCOZwAuyCtpCxTH0ZP3XEvDs"><rect width="50" height="50"/></clipPath></defs><g clip-path="url(#_clipPath_7cqvYlQvgCOZwAuyCtpCxTH0ZP3XEvDs)"><g><path d=" M 0 0 L 50 0 L 50 50 L 0 50 L 0 0 Z  M 16.76 6.73 L 33.22 6.73 C 38.75 6.73 43.27 11.25 43.27 16.77 L 43.27 33.24 C 43.27 38.75 38.75 43.27 33.22 43.27 L 16.76 43.27 C 11.25 43.27 6.73 38.75 6.73 33.24 L 6.73 16.77 C 6.73 11.25 11.25 6.73 16.76 6.73 Z  M 34.82 13.09 C 36.09 13.09 37.11 14.14 37.11 15.38 C 37.11 16.65 36.09 17.69 34.82 17.69 C 33.56 17.69 32.54 16.65 32.54 15.38 C 32.54 14.13 33.56 13.09 34.82 13.09 Z  M 25.28 15.73 C 30.34 15.73 34.43 19.83 34.43 24.89 C 34.43 29.95 30.34 34.04 25.28 34.04 C 20.22 34.04 16.11 29.95 16.11 24.89 C 16.11 19.83 20.22 15.73 25.28 15.73 Z  M 25.28 18.86 C 28.61 18.86 31.29 21.56 31.29 24.89 C 31.29 28.22 28.61 30.92 25.28 30.92 C 21.95 30.92 19.25 28.22 19.25 24.89 C 19.25 21.56 21.95 18.86 25.28 18.86 Z  M 16.98 9.89 L 33.02 9.89 C 36.91 9.89 40.11 13.09 40.11 16.98 L 40.11 33.02 C 40.11 36.91 36.91 40.11 33.02 40.11 L 16.98 40.11 C 13.09 40.11 9.89 36.91 9.89 33.02 L 9.89 16.98 C 9.89 13.09 13.09 9.89 16.98 9.89 Z " fill-rule="evenodd" fill="rgb(255,255,255)"/></g></g></svg>