<?xml version="1.0" standalone="no"?><!-- Generator: Gravit.io --><svg xmlns="http://www.w3.org/2000/svg" xmlns:xlink="http://www.w3.org/1999/xlink" style="isolation:isolate" viewBox="0 0 50 50" width="50" height="50"><defs><clipPath id="_clipPath_MNGpHgg5syRFXrMwMiOSbVvPgPR3tPeF"><rect width="50" height="50"/></clipPath></defs><g clip-path="url(#_clipPath_MNGpHgg5syRFXrMwMiOSbVvPgPR3tPeF)"><g><linearGradient id="_lgradient_1" x1="0" y1="0.5" x2="0.7088781830094324" y2="-0.20533093059445917" gradientTransform="matrix(50,0,0,50,0,0)" gradientUnits="userSpaceOnUse"><stop offset="2.5630841324695197%" stop-opacity="1" style="stop-color:rgb(209,221,240)"/><stop offset="27.69427594310952%" stop-opacity="1" style="stop-color:rgb(232,238,247)"/><stop offset="99.66069413246952%" stop-opacity="1" style="stop-color:rgb(255,255,255)"/></linearGradient><path d=" M 0 0 L 50 0 L 50 50 L 0 50 L 0 0 Z  M 24.55 34.29 C 27.53 34.32 27.66 34.4 27.81 32.52 C 27.9 31.2 28.52 29.2 29.95 30.3 C 30.58 30.77 30.69 31.01 31.2 31.53 C 32.72 33.11 33.28 34.4 35.85 34.34 C 36.89 34.32 39.87 34.4 40.63 34.14 C 42.3 33.52 40.83 31.81 40.26 31.07 L 37.82 28.5 C 36.83 27.61 35.57 26.79 36.28 25.49 C 37.19 23.79 40.41 20.5 41.26 18.02 C 41.95 16.09 40.03 16.54 38.17 16.54 C 37.36 16.54 36.52 16.56 35.7 16.56 C 33.6 16.56 34.01 16.35 32.95 18.79 C 32.22 20.46 30.04 24.26 28.87 24.72 C 28.15 25 27.85 24.05 27.77 23.42 C 27.7 22.71 27.74 21.73 27.75 20.98 C 27.89 16.09 28.57 15.57 23.16 15.66 C 22.4 15.68 21.58 15.7 20.87 15.88 C 20.28 16.03 19.55 16.41 19.49 16.96 C 19.88 17.21 20.65 17.11 21.1 17.89 C 21.73 18.99 21.67 23.48 21.08 24.46 C 19.98 26.3 17 20.46 16.61 19.7 C 16.33 19.14 16.05 18.58 15.79 17.97 C 15.5 17.24 15.44 16.83 14.72 16.59 C 14.14 16.39 10.77 16.52 9.91 16.54 C 8.98 16.54 8.33 16.71 8.7 17.75 C 8.91 18.29 9.24 18.9 9.49 19.44 C 10.32 21.28 11.9 24.18 12.96 25.88 C 14.4 28.13 14.72 28.44 16.16 30.21 C 16.61 30.75 16.91 30.98 17.41 31.42 C 19.27 33.08 21.9 34.27 24.56 34.29 L 24.55 34.29 Z " fill-rule="evenodd" fill="url(#_lgradient_1)"/></g></g></svg>