<?xml version="1.0" standalone="no"?><!-- Generator: Gravit.io --><svg xmlns="http://www.w3.org/2000/svg" xmlns:xlink="http://www.w3.org/1999/xlink" style="isolation:isolate" viewBox="0 0 50 50" width="50" height="50"><defs><clipPath id="_clipPath_G5gRKwCBmNYBRJZr9HlNuDpgaDMyaURI"><rect width="50" height="50"/></clipPath></defs><g clip-path="url(#_clipPath_G5gRKwCBmNYBRJZr9HlNuDpgaDMyaURI)"><g><path d=" M 0 0 L 50 0 L 50 50 L 0 50 L 0 0 Z  M 25.61 25.75 L 27.38 25.76 L 27.4 29.99 C 27.6 29.95 27.56 29.89 27.71 29.74 C 27.86 29.58 27.86 29.6 28.03 29.47 C 28.27 29.3 28.46 29.15 28.85 29.08 C 31.32 28.52 30.84 32.3 30.84 34.1 C 30.84 35.64 31.36 39.87 28.74 39.08 C 28.08 38.9 27.64 38.23 27.4 38.17 L 27.36 39.05 L 25.59 39.03 L 25.61 25.75 L 25.61 25.75 Z  M 37.61 35.66 C 37.67 36.97 37.48 37.89 36.79 38.55 C 36.16 39.14 34.86 39.38 33.85 38.96 C 31.84 38.1 32.25 35.53 32.25 33.11 C 32.25 31.92 32.23 30.69 32.89 29.93 C 34.06 28.54 36.87 28.63 37.44 30.92 C 37.63 31.61 37.72 33.63 37.59 34.4 L 34.06 34.4 C 34.02 35.29 33.87 37 34.48 37.41 C 34.91 37.69 35.43 37.49 35.66 37.13 C 35.88 36.74 35.77 36.15 35.81 35.63 L 37.61 35.66 L 37.61 35.66 Z  M 12.38 25.75 L 18.6 25.75 L 18.6 27.63 C 16.35 27.63 16.44 27.44 16.44 28.07 C 16.46 29.49 16.51 38.47 16.42 39.05 L 14.47 39.05 L 14.45 27.63 L 12.36 27.63 L 12.38 25.75 L 12.38 25.75 Z  M 19.12 22.36 C 17.94 22.4 14.21 22.53 13.24 22.82 C 11.64 23.29 10.84 24.54 10.54 26.4 C 10.08 29.11 9.7 38.4 11.14 40.74 C 11.53 41.37 12.07 41.95 12.79 42.27 C 14.91 43.18 28.35 42.99 30.84 42.88 C 32.29 42.81 35.47 42.81 36.7 42.44 C 38.49 41.91 39.14 40.58 39.45 38.9 C 40.05 35.74 39.95 30.19 39.56 26.95 C 39.34 25.21 38.89 23.76 37.22 23.01 C 35.98 22.45 33.09 22.45 31.55 22.38 C 27.55 22.19 23.14 22.25 19.12 22.36 L 19.12 22.36 Z  M 17.44 20.46 L 19.45 20.48 C 19.49 19.46 19.36 15.4 19.56 14.7 C 19.71 14.21 19.86 13.67 20.03 13.19 C 20.31 12.29 21.78 7.62 21.85 7.05 C 19.49 7.05 19.92 6.73 19.53 8.31 L 18.49 12.24 C 18.11 11.47 17.31 7.33 16.98 7.05 L 14.97 7.05 L 16.92 13.02 C 17.42 14.6 17.44 14.92 17.44 16.48 C 17.44 17.8 17.42 19.14 17.44 20.46 L 17.44 20.46 Z  M 32.14 19.48 L 32.14 20.44 L 33.96 20.48 C 33.98 19.37 34.04 10.96 33.93 10.47 C 33.48 10.45 32.9 10.45 32.47 10.45 C 32.01 10.47 32.14 10.43 32.14 11.59 L 32.14 17.41 C 32.14 18.06 32.16 18.17 31.8 18.55 C 31.58 18.77 31.26 19.01 30.76 18.92 C 30.41 18.69 30.56 15.38 30.56 14.82 C 30.56 14.34 30.65 10.64 30.5 10.51 C 30.15 10.38 29.22 10.45 28.77 10.47 C 28.66 10.96 28.74 16.74 28.74 17.75 C 28.74 18.81 28.62 20.24 29.61 20.54 C 30.88 20.91 31.86 19.59 32.14 19.48 Z  M 25.44 17.34 C 25.42 19.66 24.14 18.92 23.94 18.6 C 23.62 18.02 23.73 16.2 23.73 15.42 C 23.73 14.66 23.58 12.82 23.97 12.28 C 24.14 12.05 25.44 11.27 25.44 13.56 L 25.44 17.34 L 25.44 17.34 Z  M 23.88 10.45 C 21.54 11.14 21.89 13.62 21.89 16.22 C 21.91 17.49 21.87 18.58 22.46 19.55 C 22.95 20.31 24.07 20.82 25.26 20.52 C 27.71 19.92 27.27 17 27.27 14.77 C 27.27 13.06 27.34 11.25 25.63 10.54 C 25.13 10.34 24.42 10.28 23.88 10.45 L 23.88 10.45 Z  M 27.4 37.13 C 28.98 38.31 29.07 36.87 29.07 35.36 C 29.07 34.51 29.16 31.75 28.94 31.14 C 28.72 30.49 28.01 30.49 27.56 30.9 C 27.27 31.16 27.38 32.18 27.38 32.85 C 27.38 34.21 27.3 35.79 27.4 37.13 L 27.4 37.13 Z  M 34.04 32.18 L 34.04 32.93 L 35.82 32.91 C 35.82 32.17 35.94 30.96 35.28 30.69 C 34.21 30.25 34.04 31.46 34.04 32.18 Z  M 22.21 36.72 C 22.3 36.58 22.3 36.59 22.3 36.3 L 22.3 29.17 L 24.01 29.17 L 24.01 39.01 L 22.3 39.03 L 22.3 38.21 C 22.21 37.89 22.32 38.12 22.15 38.02 C 22.08 38.23 21.46 38.71 21.2 38.86 C 20.83 39.08 20.25 39.25 19.73 39.1 C 18.78 38.83 18.89 37.32 18.89 36.35 C 18.89 35.23 18.82 29.76 18.91 29.15 L 20.64 29.17 C 20.75 30.39 20.55 36.7 20.72 37.24 C 20.9 37.88 21.74 37.41 22.21 36.72 L 22.21 36.72 Z " fill-rule="evenodd" fill="rgb(255,255,255)"/></g></g></svg>