<?xml version="1.0" encoding="UTF-8" standalone="no"?>
<!-- Creator: CorelDRAW 2017 -->

<svg
   xmlns:dc="http://purl.org/dc/elements/1.1/"
   xmlns:cc="http://creativecommons.org/ns#"
   xmlns:rdf="http://www.w3.org/1999/02/22-rdf-syntax-ns#"
   xmlns:svg="http://www.w3.org/2000/svg"
   xmlns="http://www.w3.org/2000/svg"
   xmlns:xlink="http://www.w3.org/1999/xlink"
   xmlns:sodipodi="http://sodipodi.sourceforge.net/DTD/sodipodi-0.dtd"
   xmlns:inkscape="http://www.inkscape.org/namespaces/inkscape"
   xml:space="preserve"
   width="250px"
   height="100px"
   version="1.1"
   style="shape-rendering:geometricPrecision; text-rendering:geometricPrecision; image-rendering:optimizeQuality; fill-rule:evenodd; clip-rule:evenodd"
   viewBox="0 0 25000000 10000000"
   id="svg968"
   sodipodi:docname="icon-social-footer.svg"
   inkscape:version="0.92.2 (5c3e80d, 2017-08-06)"><metadata
     id="metadata972"><rdf:RDF><cc:Work
         rdf:about=""><dc:format>image/svg+xml</dc:format><dc:type
           rdf:resource="http://purl.org/dc/dcmitype/StillImage" /><dc:title></dc:title></cc:Work></rdf:RDF></metadata><sodipodi:namedview
     pagecolor="#ffffff"
     bordercolor="#666666"
     borderopacity="1"
     objecttolerance="10"
     gridtolerance="10"
     guidetolerance="10"
     inkscape:pageopacity="0"
     inkscape:pageshadow="2"
     inkscape:window-width="751"
     inkscape:window-height="480"
     id="namedview970"
     showgrid="false"
     inkscape:zoom="0.944"
     inkscape:cx="125"
     inkscape:cy="50"
     inkscape:window-x="0"
     inkscape:window-y="0"
     inkscape:window-maximized="1"
     inkscape:current-layer="svg968" /><defs
     id="defs943"><style
       type="text/css"
       id="style931"><![CDATA[
    .fil4 {fill:white}
    .fil2 {fill:url(#id0)}
    .fil1 {fill:url(#id1)}
    .fil3 {fill:url(#id2)}
    .fil0 {fill:url(#id3)}
   ]]></style><linearGradient
       id="id0"
       gradientUnits="objectBoundingBox"
       x1="4.54239%"
       y1="99.1888%"
       x2="101.64%"
       y2="2.57707%"><stop
         offset="0"
         style="stop-opacity:1; stop-color:#D1DDF0"
         id="stop933" /><stop
         offset="0.258824"
         style="stop-opacity:1; stop-color:#E8EEF7"
         id="stop935" /><stop
         offset="1"
         style="stop-opacity:1; stop-color:white"
         id="stop937" /></linearGradient><linearGradient
       id="id1"
       gradientUnits="userSpaceOnUse"
       xlink:href="#id0"
       x1="15227000"
       y1="4959000"
       x2="20082000"
       y2="129000" /><linearGradient
       id="id2"
       gradientUnits="userSpaceOnUse"
       xlink:href="#id0"
       x1="227000"
       y1="4959000"
       x2="5082000"
       y2="129000" /><linearGradient
       id="id3"
       gradientUnits="userSpaceOnUse"
       xlink:href="#id0"
       x1="20227000"
       y1="4959000"
       x2="25082000"
       y2="129000" /></defs><g
     id="Слой_x0020_1"><metadata
       id="CorelCorpID_0Corel-Layer" /><g
       id="_1917019623168"><path
         class="fil0"
         d="M20000000 0l5000000 0 0 5000000 -5000000 0 0 -5000000zm2048000 1864000l393000 0 0 -290000c0,-533000 63000,-871000 784000,-871000 170000,0 340000,0 510000,0l0 618000 -283000 0c-224000,0 -260000,89000 -260000,253000l0 290000 547000 0 -56000 615000 -491000 0 0 1818000 -751000 0 0 -1818000 -393000 0 0 -615000z"
         id="path946" /><path
         class="fil1"
         d="M15000000 0l5000000 0 0 5000000 -5000000 0 0 -5000000zm2468000 1959000c2000,11000 6000,23000 6000,34000 -289000,-6000 -602000,-115000 -853000,-251000 -196000,-121000 -306000,-213000 -468000,-380000 -9000,-12000 -53000,-64000 -61000,-70000 -53000,79000 -91000,214000 -91000,314000 0,80000 7000,154000 30000,224000 33000,96000 82000,189000 154000,261000 34000,33000 69000,63000 107000,92000 5000,4000 2000,2000 4000,4000 -53000,0 -123000,-14000 -164000,-27000 -43000,-13000 -105000,-48000 -136000,-55000 0,199000 87000,407000 248000,529000 54000,41000 204000,132000 281000,134000l0 5000c-29000,1000 -120000,32000 -241000,16000 -17000,-3000 -39000,-7000 -53000,-7000 34000,72000 43000,112000 91000,181000 117000,170000 322000,285000 533000,285000 -39000,53000 -276000,170000 -347000,198000 -205000,78000 -353000,83000 -569000,85000 -26000,1000 -48000,-5000 -74000,-5000 17000,23000 218000,121000 251000,136000 324000,146000 726000,205000 1078000,145000 315000,-53000 646000,-170000 893000,-386000 186000,-161000 328000,-317000 453000,-533000 110000,-201000 175000,-368000 225000,-593000 32000,-140000 40000,-279000 40000,-424000 0,-18000 -3000,-24000 -3000,-41000 21000,-6000 118000,-93000 140000,-114000 59000,-59000 108000,-112000 158000,-180000 13000,-16000 25000,-32000 35000,-50000 -18000,4000 -100000,39000 -129000,48000 -54000,18000 -188000,53000 -245000,53000 7000,-9000 56000,-40000 71000,-53000 91000,-74000 165000,-174000 205000,-285000 3000,-9000 7000,-21000 11000,-30000 -14000,3000 -80000,43000 -95000,50000 -85000,43000 -177000,74000 -270000,98000 -63000,15000 -54000,21000 -82000,-7000 -35000,-35000 -77000,-64000 -118000,-92000 -131000,-73000 -224000,-98000 -376000,-98000 -149000,0 -329000,73000 -435000,179000 -162000,164000 -250000,370000 -204000,610000z"
         id="path948" /><path
         class="fil2"
         d="M10000000 0l5000000 0 0 5000000 -5000000 0 0 -5000000zm1676000 673000l1646000 0c553000,0 1005000,452000 1005000,1004000l0 1647000c0,551000 -452000,1003000 -1005000,1003000l-1646000 0c-551000,0 -1003000,-452000 -1003000,-1003000l0 -1647000c0,-552000 452000,-1004000 1003000,-1004000zm1806000 636000c127000,0 229000,105000 229000,229000 0,127000 -102000,231000 -229000,231000 -126000,0 -228000,-104000 -228000,-231000 0,-125000 102000,-229000 228000,-229000zm-954000 264000c506000,0 915000,410000 915000,916000 0,506000 -409000,915000 -915000,915000 -506000,0 -917000,-409000 -917000,-915000 0,-506000 411000,-916000 917000,-916000zm0 313000c333000,0 601000,270000 601000,603000 0,333000 -268000,603000 -601000,603000 -333000,0 -603000,-270000 -603000,-603000 0,-333000 270000,-603000 603000,-603000zm-830000 -897000l1604000 0c389000,0 709000,320000 709000,709000l0 1604000c0,389000 -320000,709000 -709000,709000l-1604000 0c-389000,0 -709000,-320000 -709000,-709000l0 -1604000c0,-389000 320000,-709000 709000,-709000z"
         id="path950" /><path
         class="fil2"
         d="M5000000 0l5000000 0 0 5000000 -5000000 0 0 -5000000zm2455000 3429000c298000,3000 311000,11000 326000,-177000 9000,-132000 71000,-332000 214000,-222000 63000,47000 74000,71000 125000,123000 152000,158000 208000,287000 465000,281000 104000,-2000 402000,6000 478000,-20000 167000,-62000 20000,-233000 -37000,-307000l-244000 -257000c-99000,-89000 -225000,-171000 -154000,-301000 91000,-170000 413000,-499000 498000,-747000 69000,-193000 -123000,-148000 -309000,-148000 -81000,0 -165000,2000 -247000,2000 -210000,0 -169000,-21000 -275000,223000 -73000,167000 -291000,547000 -408000,593000 -72000,28000 -102000,-67000 -110000,-130000 -7000,-71000 -3000,-169000 -2000,-244000 14000,-489000 82000,-541000 -459000,-532000 -76000,2000 -158000,4000 -229000,22000 -59000,15000 -132000,53000 -138000,108000 39000,25000 116000,15000 161000,93000 63000,110000 57000,559000 -2000,657000 -110000,184000 -408000,-400000 -447000,-476000 -28000,-56000 -56000,-112000 -82000,-173000 -29000,-73000 -35000,-114000 -107000,-138000 -58000,-20000 -395000,-7000 -481000,-5000 -93000,0 -158000,17000 -121000,121000 21000,54000 54000,115000 79000,169000 83000,184000 241000,474000 347000,644000 144000,225000 176000,256000 320000,433000 45000,54000 75000,77000 125000,121000 186000,166000 449000,285000 715000,287000l-1000 0z"
         id="path952" /><path
         class="fil3"
         d="M0 0l5000000 0 0 5000000 -5000000 0 0 -5000000zm2561000 2575000l177000 1000 2000 423000c20000,-4000 16000,-10000 31000,-25000 15000,-16000 15000,-14000 32000,-27000 24000,-17000 43000,-32000 82000,-39000 247000,-56000 199000,322000 199000,502000 0,154000 52000,577000 -210000,499000 -66000,-19000 -110000,-86000 -134000,-92000l-4000 88000 -177000 -2000 2000 -1328000 0 0zm1200000 991000c6000,131000 -13000,223000 -82000,289000 -63000,59000 -193000,84000 -294000,41000 -201000,-86000 -160000,-343000 -160000,-585000 0,-119000 -2000,-242000 64000,-318000 117000,-139000 398000,-130000 455000,99000 19000,69000 28000,271000 15000,348000l-353000 0c-4000,89000 -19000,260000 42000,301000 43000,28000 95000,8000 118000,-28000 22000,-39000 11000,-98000 15000,-150000l180000 3000 0 0zm-2523000 -991000l622000 0 0 188000c-225000,0 -216000,-19000 -216000,44000 2000,142000 7000,1040000 -2000,1098000l-195000 0 -2000 -1142000 -209000 0 2000 -188000 0 0zm674000 -339000c-118000,4000 -491000,17000 -588000,46000 -160000,47000 -240000,172000 -270000,358000 -46000,271000 -84000,1200000 60000,1434000 39000,63000 93000,121000 165000,153000 212000,91000 1556000,72000 1805000,61000 145000,-7000 463000,-7000 586000,-44000 179000,-52000 244000,-186000 275000,-354000 60000,-316000 50000,-871000 11000,-1195000 -22000,-174000 -67000,-319000 -234000,-394000 -124000,-56000 -413000,-56000 -567000,-63000 -400000,-19000 -841000,-13000 -1243000,-2000l0 0zm-168000 -190000l201000 2000c4000,-102000 -9000,-508000 11000,-578000 15000,-49000 30000,-103000 47000,-151000 28000,-90000 175000,-557000 182000,-614000 -236000,0 -193000,-32000 -232000,126000l-104000 393000c-38000,-77000 -118000,-491000 -151000,-519000l-201000 0 195000 597000c50000,158000 52000,190000 52000,346000 0,132000 -2000,266000 0,398000l0 0zm1470000 -98000l0 96000 182000 4000c2000,-111000 8000,-952000 -3000,-1001000 -45000,-2000 -103000,-2000 -146000,-2000 -46000,2000 -33000,-2000 -33000,114000l0 582000c0,65000 2000,76000 -34000,114000 -22000,22000 -54000,46000 -104000,37000 -35000,-23000 -20000,-354000 -20000,-410000 0,-48000 9000,-418000 -6000,-431000 -35000,-13000 -128000,-6000 -173000,-4000 -11000,49000 -3000,627000 -3000,728000 0,106000 -12000,249000 87000,279000 127000,37000 225000,-95000 253000,-106000zm-670000 -214000c-2000,232000 -130000,158000 -150000,126000 -32000,-58000 -21000,-240000 -21000,-318000 0,-76000 -15000,-260000 24000,-314000 17000,-23000 147000,-101000 147000,128000l0 378000 0 0zm-156000 -689000c-234000,69000 -199000,317000 -199000,577000 2000,127000 -2000,236000 57000,333000 49000,77000 161000,127000 280000,97000 245000,-60000 201000,-352000 201000,-575000 0,-171000 7000,-352000 -164000,-423000 -50000,-20000 -121000,-26000 -175000,-9000l0 0zm352000 2668000c158000,118000 167000,-26000 167000,-177000 0,-85000 9000,-360000 -13000,-422000 -22000,-65000 -93000,-65000 -138000,-24000 -29000,26000 -18000,129000 -18000,195000 0,136000 -8000,294000 2000,428000l0 0zm664000 -494000l0 74000 178000 -2000c0,-74000 12000,-195000 -54000,-222000 -107000,-44000 -124000,77000 -124000,150000zm-1183000 453000c9000,-14000 9000,-13000 9000,-42000l0 -713000 171000 0 0 984000 -171000 2000 0 -82000c-9000,-32000 2000,-9000 -15000,-19000 -7000,21000 -69000,69000 -95000,84000 -37000,23000 -95000,39000 -147000,24000 -95000,-27000 -84000,-178000 -84000,-275000 0,-112000 -7000,-659000 2000,-720000l173000 2000c11000,122000 -9000,754000 8000,807000 18000,64000 102000,17000 149000,-52000l0 0z"
         id="path954" /><path
         class="fil4"
         d="M20000000 5000000l5000000 0 0 5000000 -5000000 0 0 -5000000zm2048000 1864000l393000 0 0 -290000c0,-533000 63000,-871000 784000,-871000 170000,0 340000,0 510000,0l0 618000 -283000 0c-224000,0 -260000,89000 -260000,253000l0 290000 547000 0 -56000 615000 -491000 0 0 1818000 -751000 0 0 -1818000 -393000 0 0 -615000z"
         id="path956" /><path
         class="fil4"
         d="M15000000 5000000l5000000 0 0 5000000 -5000000 0 0 -5000000zm2468000 1959000c2000,11000 6000,23000 6000,34000 -289000,-6000 -602000,-115000 -853000,-251000 -196000,-121000 -306000,-213000 -468000,-380000 -9000,-12000 -53000,-64000 -61000,-70000 -53000,79000 -91000,214000 -91000,314000 0,80000 7000,154000 30000,224000 33000,96000 82000,189000 154000,261000 34000,33000 69000,63000 107000,92000 5000,4000 2000,2000 4000,4000 -53000,0 -123000,-14000 -164000,-27000 -43000,-13000 -105000,-48000 -136000,-55000 0,199000 87000,407000 248000,529000 54000,41000 204000,132000 281000,134000l0 5000c-29000,1000 -120000,32000 -241000,16000 -17000,-3000 -39000,-7000 -53000,-7000 34000,72000 43000,112000 91000,181000 117000,170000 322000,285000 533000,285000 -39000,53000 -276000,170000 -347000,197000 -205000,79000 -353000,84000 -569000,86000 -26000,1000 -48000,-5000 -74000,-5000 17000,23000 218000,121000 251000,136000 324000,146000 726000,205000 1078000,145000 315000,-53000 646000,-170000 893000,-386000 186000,-161000 328000,-317000 453000,-533000 110000,-201000 175000,-368000 225000,-593000 32000,-140000 40000,-279000 40000,-425000 0,-17000 -3000,-23000 -3000,-40000 21000,-6000 118000,-93000 140000,-114000 59000,-59000 108000,-112000 158000,-180000 13000,-16000 25000,-32000 35000,-50000 -18000,4000 -100000,39000 -129000,48000 -54000,18000 -188000,53000 -245000,53000 7000,-9000 56000,-40000 71000,-53000 91000,-74000 165000,-174000 205000,-285000 3000,-9000 7000,-22000 11000,-30000 -14000,3000 -80000,43000 -95000,50000 -85000,43000 -177000,74000 -270000,98000 -63000,15000 -54000,21000 -82000,-7000 -35000,-35000 -77000,-64000 -118000,-92000 -131000,-73000 -224000,-98000 -376000,-98000 -149000,0 -329000,72000 -435000,179000 -162000,164000 -250000,370000 -204000,610000z"
         id="path958" /><path
         class="fil4"
         d="M10000000 5000000l5000000 0 0 5000000 -5000000 0 0 -5000000zm1676000 673000l1646000 0c553000,0 1005000,452000 1005000,1004000l0 1647000c0,551000 -452000,1003000 -1005000,1003000l-1646000 0c-551000,0 -1003000,-452000 -1003000,-1003000l0 -1647000c0,-552000 452000,-1004000 1003000,-1004000zm1806000 636000c127000,0 229000,105000 229000,229000 0,127000 -102000,231000 -229000,231000 -126000,0 -228000,-104000 -228000,-231000 0,-125000 102000,-229000 228000,-229000zm-954000 264000c506000,0 915000,410000 915000,916000 0,506000 -409000,915000 -915000,915000 -506000,0 -917000,-409000 -917000,-915000 0,-506000 411000,-916000 917000,-916000zm0 313000c333000,0 601000,270000 601000,603000 0,333000 -268000,603000 -601000,603000 -333000,0 -603000,-270000 -603000,-603000 0,-333000 270000,-603000 603000,-603000zm-830000 -897000l1604000 0c389000,0 709000,320000 709000,709000l0 1604000c0,389000 -320000,709000 -709000,709000l-1604000 0c-389000,0 -709000,-320000 -709000,-709000l0 -1604000c0,-389000 320000,-709000 709000,-709000z"
         id="path960" /><path
         class="fil4"
         d="M5000000 5000000l5000000 0 0 5000000 -5000000 0 0 -5000000zm2455000 3429000c298000,3000 311000,11000 326000,-177000 9000,-132000 71000,-332000 214000,-222000 63000,47000 74000,71000 125000,123000 152000,158000 208000,287000 465000,281000 104000,-2000 402000,6000 478000,-20000 167000,-62000 20000,-233000 -37000,-307000l-244000 -257000c-99000,-89000 -225000,-171000 -154000,-301000 91000,-170000 413000,-499000 498000,-747000 69000,-193000 -123000,-148000 -309000,-148000 -81000,0 -165000,2000 -247000,2000 -210000,0 -169000,-21000 -275000,223000 -73000,167000 -291000,547000 -408000,593000 -72000,28000 -102000,-67000 -110000,-130000 -7000,-71000 -3000,-169000 -2000,-244000 14000,-489000 82000,-541000 -459000,-532000 -76000,2000 -158000,4000 -229000,22000 -59000,15000 -132000,53000 -138000,108000 39000,24000 116000,15000 161000,93000 63000,110000 57000,559000 -2000,657000 -110000,184000 -408000,-400000 -447000,-476000 -28000,-56000 -56000,-112000 -82000,-173000 -29000,-73000 -35000,-114000 -107000,-138000 -58000,-20000 -395000,-7000 -481000,-5000 -93000,0 -158000,17000 -121000,121000 21000,54000 54000,115000 79000,169000 83000,184000 241000,474000 347000,644000 144000,225000 176000,256000 320000,433000 45000,54000 75000,77000 125000,121000 186000,166000 449000,285000 715000,287000l-1000 0z"
         id="path962" /><path
         class="fil4"
         d="M0 5000000l5000000 0 0 5000000 -5000000 0 0 -5000000zm2561000 2575000l177000 1000 2000 423000c20000,-4000 16000,-10000 31000,-25000 15000,-16000 15000,-14000 32000,-27000 24000,-17000 43000,-32000 82000,-39000 247000,-56000 199000,322000 199000,502000 0,154000 52000,577000 -210000,498000 -66000,-18000 -110000,-85000 -134000,-91000l-4000 88000 -177000 -2000 2000 -1328000 0 0zm1200000 991000c6000,131000 -13000,223000 -82000,289000 -63000,59000 -193000,83000 -294000,41000 -201000,-86000 -160000,-343000 -160000,-585000 0,-119000 -2000,-242000 64000,-318000 117000,-139000 398000,-130000 455000,99000 19000,69000 28000,271000 15000,348000l-353000 0c-4000,89000 -19000,260000 42000,301000 43000,28000 95000,8000 118000,-28000 22000,-39000 11000,-98000 15000,-150000l180000 3000 0 0zm-2523000 -991000l622000 0 0 188000c-225000,0 -216000,-19000 -216000,44000 2000,142000 7000,1040000 -2000,1098000l-195000 0 -2000 -1142000 -209000 0 2000 -188000 0 0zm674000 -339000c-118000,4000 -491000,17000 -588000,46000 -160000,47000 -240000,172000 -270000,358000 -46000,271000 -84000,1200000 60000,1434000 39000,63000 93000,121000 165000,153000 212000,91000 1556000,72000 1805000,61000 145000,-7000 463000,-7000 586000,-44000 179000,-53000 244000,-186000 275000,-354000 60000,-316000 50000,-871000 11000,-1195000 -22000,-174000 -67000,-319000 -234000,-394000 -124000,-56000 -413000,-56000 -567000,-63000 -400000,-19000 -841000,-13000 -1243000,-2000l0 0zm-168000 -190000l201000 2000c4000,-102000 -9000,-508000 11000,-578000 15000,-49000 30000,-103000 47000,-151000 28000,-90000 175000,-557000 182000,-614000 -236000,0 -193000,-32000 -232000,126000l-104000 393000c-38000,-77000 -118000,-491000 -151000,-519000l-201000 0 195000 597000c50000,158000 52000,190000 52000,346000 0,132000 -2000,266000 0,398000l0 0zm1470000 -98000l0 96000 182000 4000c2000,-111000 8000,-952000 -3000,-1001000 -45000,-2000 -103000,-2000 -146000,-2000 -46000,2000 -33000,-2000 -33000,114000l0 582000c0,65000 2000,76000 -34000,114000 -22000,22000 -54000,46000 -104000,37000 -35000,-23000 -20000,-354000 -20000,-410000 0,-48000 9000,-418000 -6000,-431000 -35000,-13000 -128000,-6000 -173000,-4000 -11000,49000 -3000,627000 -3000,728000 0,106000 -12000,249000 87000,279000 127000,37000 225000,-95000 253000,-106000zm-670000 -214000c-2000,232000 -130000,158000 -150000,126000 -32000,-58000 -21000,-240000 -21000,-318000 0,-76000 -15000,-260000 24000,-314000 17000,-23000 147000,-101000 147000,128000l0 378000 0 0zm-156000 -689000c-234000,69000 -199000,317000 -199000,577000 2000,127000 -2000,236000 57000,333000 49000,76000 161000,127000 280000,97000 245000,-60000 201000,-352000 201000,-575000 0,-171000 7000,-352000 -164000,-423000 -50000,-20000 -121000,-26000 -175000,-9000l0 0zm352000 2668000c158000,118000 167000,-26000 167000,-177000 0,-85000 9000,-361000 -13000,-422000 -22000,-65000 -93000,-65000 -138000,-24000 -29000,26000 -18000,128000 -18000,195000 0,136000 -8000,294000 2000,428000l0 0zm664000 -495000l0 75000 178000 -2000c0,-74000 12000,-195000 -54000,-222000 -107000,-44000 -124000,77000 -124000,149000zm-1183000 454000c9000,-14000 9000,-13000 9000,-42000l0 -713000 171000 0 0 984000 -171000 2000 0 -82000c-9000,-32000 2000,-9000 -15000,-19000 -7000,21000 -69000,69000 -95000,84000 -37000,22000 -95000,39000 -147000,24000 -95000,-27000 -84000,-178000 -84000,-275000 0,-112000 -7000,-659000 2000,-720000l173000 2000c11000,122000 -9000,753000 8000,807000 18000,64000 102000,17000 149000,-52000l0 0z"
         id="path964" /></g></g></svg>