<?xml version="1.0" encoding="UTF-8" standalone="no"?>
<!-- Created with Inkscape (http://www.inkscape.org/) -->

<svg
   xmlns:dc="http://purl.org/dc/elements/1.1/"
   xmlns:cc="http://creativecommons.org/ns#"
   xmlns:rdf="http://www.w3.org/1999/02/22-rdf-syntax-ns#"
   xmlns:svg="http://www.w3.org/2000/svg"
   xmlns="http://www.w3.org/2000/svg"
   xmlns:xlink="http://www.w3.org/1999/xlink"
   xmlns:sodipodi="http://sodipodi.sourceforge.net/DTD/sodipodi-0.dtd"
   xmlns:inkscape="http://www.inkscape.org/namespaces/inkscape"
   width="103"
   height="115"
   viewBox="0 0 27.252083 30.427084"
   version="1.1"
   id="svg4755"
   inkscape:version="0.92.2 (5c3e80d, 2017-08-06)"
   sodipodi:docname="logo.svg">
  <defs
     id="defs4749">
    <linearGradient
       id="linearGradient5924"
       inkscape:collect="always">
      <stop
         id="stop5920"
         offset="0"
         style="stop-color:#c9c9c9;stop-opacity:1" />
      <stop
         style="stop-color:#cacaca;stop-opacity:1;"
         offset="0.40249065"
         id="stop5926" />
      <stop
         id="stop5928"
         offset="0.93474734"
         style="stop-color:#f4f4f4;stop-opacity:1;" />
      <stop
         id="stop5922"
         offset="1"
         style="stop-color:#f7f7f7;stop-opacity:1" />
    </linearGradient>
    <linearGradient
       inkscape:collect="always"
       id="linearGradient5908">
      <stop
         style="stop-color:#c9c9c9;stop-opacity:1"
         offset="0"
         id="stop5904" />
      <stop
         style="stop-color:#f7f7f7;stop-opacity:1"
         offset="1"
         id="stop5906" />
    </linearGradient>
    <linearGradient
       inkscape:collect="always"
       id="linearGradient5000">
      <stop
         style="stop-color:#fffad8;stop-opacity:1"
         offset="0"
         id="stop4996" />
      <stop
         id="stop5868"
         offset="0.33072931"
         style="stop-color:#fffad8;stop-opacity:0.99145299" />
      <stop
         style="stop-color:#ffff49;stop-opacity:1"
         offset="0.51071316"
         id="stop5870" />
      <stop
         style="stop-color:#fffad8;stop-opacity:1"
         offset="1"
         id="stop4998" />
    </linearGradient>
    <radialGradient
       inkscape:collect="always"
       xlink:href="#linearGradient5000"
       id="radialGradient5004"
       cx="13.62603"
       cy="280.17126"
       fx="13.62603"
       fy="280.17126"
       r="13.550297"
       gradientTransform="matrix(1,0,0,1.0068383,0,-1.9158923)"
       gradientUnits="userSpaceOnUse" />
    <linearGradient
       inkscape:collect="always"
       xlink:href="#linearGradient5908"
       id="linearGradient5910"
       x1="5.9453354"
       y1="279.12091"
       x2="11.586976"
       y2="291.25137"
       gradientUnits="userSpaceOnUse" />
    <linearGradient
       inkscape:collect="always"
       xlink:href="#linearGradient5924"
       id="linearGradient5918"
       x1="7.2939601"
       y1="295.73923"
       x2="8.4154158"
       y2="281.46707"
       gradientUnits="userSpaceOnUse" />
    <linearGradient
       inkscape:collect="always"
       xlink:href="#linearGradient5908"
       id="linearGradient5936"
       x1="7.7500782"
       y1="279.65219"
       x2="10.785168"
       y2="291.61887"
       gradientUnits="userSpaceOnUse" />
    <linearGradient
       inkscape:collect="always"
       xlink:href="#linearGradient5908"
       id="linearGradient5944"
       x1="7.3051648"
       y1="277.47601"
       x2="8.3794031"
       y2="280.66132"
       gradientUnits="userSpaceOnUse" />
  </defs>
  <sodipodi:namedview
     id="base"
     pagecolor="#ffffff"
     bordercolor="#666666"
     borderopacity="1.0"
     inkscape:pageopacity="0.0"
     inkscape:pageshadow="2"
     inkscape:zoom="7.9195959"
     inkscape:cx="65.740796"
     inkscape:cy="52.359031"
     inkscape:document-units="mm"
     inkscape:current-layer="layer1"
     showgrid="false"
     units="px"
     inkscape:window-width="1920"
     inkscape:window-height="1017"
     inkscape:window-x="-8"
     inkscape:window-y="-8"
     inkscape:window-maximized="1" />
  <metadata
     id="metadata4752">
    <rdf:RDF>
      <cc:Work
         rdf:about="">
        <dc:format>image/svg+xml</dc:format>
        <dc:type
           rdf:resource="http://purl.org/dc/dcmitype/StillImage" />
        <dc:title></dc:title>
      </cc:Work>
    </rdf:RDF>
  </metadata>
  <g
     inkscape:label="Layer 1"
     inkscape:groupmode="layer"
     id="layer1"
     transform="translate(0,-266.5729)">
    <path
       d="m 13.883411,293.70824 c 0.0057,0 0.0111,-10e-4 0.0166,-0.003 0.0189,-0.007 0.03168,-0.0248 0.0319,-0.0452 0.01114,-0.73186 0.166684,-1.06704 0.303986,-1.3626 0.08072,-0.17364 0.156852,-0.33793 0.191042,-0.55767 0.04861,-0.31273 0.0022,-0.53335 -0.04271,-0.74672 -0.03997,-0.18981 -0.08126,-0.38612 -0.05756,-0.65472 0.01354,-0.15416 0.06849,-0.3212 0.132059,-0.51465 0.09219,-0.28004 0.196719,-0.59717 0.209939,-0.98186 0.02196,-0.6588 -0.07657,-1.01367 -0.148443,-1.2727 -0.05698,-0.20555 -0.097,-0.35003 -0.05538,-0.54854 l 2.303103,6.27248 c 0.0071,0.0196 0.02567,0.0318 0.04555,0.0318 0.0038,0 0.0077,-10e-6 0.01158,-10e-4 0.02392,-0.006 0.03988,-0.0291 0.03648,-0.0536 l -0.806769,-6.4032 1.866294,4.23447 c 0.0082,0.0182 0.02578,0.029 0.04457,0.029 0.006,0 0.01212,-0.001 0.01802,-0.003 0.02414,-0.01 0.03644,-0.0373 0.02764,-0.0621 l -1.572795,-4.41813 c 0.195521,0.22459 0.367338,0.36002 0.451118,0.41022 0.517638,0.3124 0.627304,0.65858 0.743415,1.02512 0.08203,0.25913 0.166903,0.52708 0.398142,0.7904 0.139049,0.15856 0.325613,0.28598 0.522881,0.42089 0.327143,0.22316 0.665208,0.45402 0.799342,0.8441 0.07985,0.23163 0.511193,1.39858 1.179241,1.63098 0.0053,0.002 0.01056,0.003 0.01606,0.003 0.01409,0 0.02752,-0.006 0.03692,-0.0174 0.013,-0.0155 0.0151,-0.0376 0.0054,-0.0552 -0.353795,-0.63909 -0.385365,-1.00761 -0.413215,-1.33288 -0.01616,-0.19103 -0.03167,-0.37149 -0.111414,-0.57924 -0.113052,-0.296 -0.262915,-0.4637 -0.407863,-0.62589 -0.128453,-0.14393 -0.261713,-0.29304 -0.374547,-0.53743 -0.06467,-0.1403 -0.100056,-0.31251 -0.140906,-0.51167 -0.05898,-0.28896 -0.126051,-0.61644 -0.305734,-0.95612 -0.307918,-0.5821 -0.569413,-0.84003 -0.760018,-1.02819 -0.149426,-0.14756 -0.255274,-0.25166 -0.318404,-0.44048 l 5.100579,4.26583 c 0.0091,0.007 0.0201,0.0112 0.03102,0.0112 0.01212,0 0.02413,-0.005 0.03353,-0.0135 0.01778,-0.0171 0.02007,-0.0452 0.005,-0.065 l -3.876554,-5.13876 3.718171,2.72729 c 0.0087,0.006 0.01872,0.009 0.02862,0.009 0.01442,0 0.02863,-0.006 0.03823,-0.0186 0.01602,-0.0207 0.01318,-0.0505 -0.0067,-0.0676 l -3.541329,-3.02262 c 0.280938,0.0961 0.498092,0.12707 0.598032,0.12907 0.603274,0.01 0.870122,0.25441 1.15248,0.51344 0.19978,0.1831 0.406224,0.37269 0.737626,0.48427 0.198798,0.0671 0.423592,0.0835 0.661713,0.10091 0.393881,0.0286 0.801307,0.0584 1.110863,0.32846 0.159584,0.13909 0.988964,0.83353 1.664548,0.83353 0.05789,0 0.113709,-0.005 0.166029,-0.0153 0.01988,-0.004 0.03518,-0.0197 0.03878,-0.0396 0.0035,-0.0199 -0.0057,-0.0399 -0.02294,-0.0504 -0.623919,-0.37545 -0.833967,-0.67871 -1.019329,-0.94644 -0.108902,-0.15713 -0.211905,-0.30579 -0.383833,-0.44543 -0.245111,-0.19917 -0.457999,-0.26901 -0.663896,-0.33671 -0.18285,-0.0599 -0.372145,-0.12182 -0.59115,-0.27664 -0.125942,-0.0888 -0.241943,-0.22029 -0.376405,-0.37259 -0.194428,-0.2204 -0.414744,-0.47008 -0.738937,-0.67376 -0.555432,-0.34893 -0.909882,-0.44048 -1.168756,-0.50738 -0.20688,-0.0534 -0.353794,-0.0914 -0.507371,-0.23317 l 6.530394,1.12436 c 0.0025,4.4e-4 0.0054,6.6e-4 0.0081,6.6e-4 0.0213,0 0.04065,-0.0139 0.04675,-0.0351 0.0069,-0.024 -0.0051,-0.0488 -0.02785,-0.0588 l -5.907894,-2.49774 4.573547,0.489 c 0.0015,2.2e-4 0.0031,2.2e-4 0.005,2.2e-4 0.02381,0 0.04447,-0.0176 0.04817,-0.0419 0.0036,-0.0259 -0.01387,-0.05 -0.03954,-0.055 l -4.576278,-0.83562 c 0.28629,-0.0579 0.487597,-0.13954 0.574547,-0.18784 0.256252,-0.14349 0.488802,-0.21039 0.732165,-0.21039 0.181649,0 0.346039,0.0362 0.526704,0.0759 0.166575,0.0365 0.355105,0.0781 0.561986,0.0781 0.105188,0 0.206772,-0.0102 0.310867,-0.0316 0.205789,-0.0419 0.408628,-0.14107 0.623373,-0.24604 0.295575,-0.14437 0.601308,-0.29358 0.927795,-0.29358 0.06663,0 0.13271,0.006 0.19705,0.0187 0.132823,0.0256 0.483668,0.0854 0.873617,0.0854 0.515017,0 0.891313,-0.10068 1.118182,-0.29908 0.01526,-0.0132 0.02076,-0.0348 0.01376,-0.0537 -0.0069,-0.0191 -0.02468,-0.0319 -0.04478,-0.0321 -0.726376,-0.0111 -1.05898,-0.1677 -1.352261,-0.30602 -0.172582,-0.0812 -0.335662,-0.15805 -0.554121,-0.19245 -0.08968,-0.014 -0.174658,-0.021 -0.259748,-0.021 -0.181539,0 -0.333586,0.0324 -0.48902,0.0655 -0.14604,0.0313 -0.297104,0.0634 -0.487054,0.0634 -0.05057,0 -0.102786,-0.002 -0.155106,-0.007 -0.152921,-0.0137 -0.318513,-0.0691 -0.510648,-0.13314 -0.277879,-0.0931 -0.592788,-0.19837 -0.974436,-0.21127 -0.06455,-0.002 -0.126055,-0.003 -0.184925,-0.003 -0.44664,0 -0.737408,0.0611 -0.940794,0.11455 -0.04937,0.0129 -0.09525,0.0258 -0.13883,0.038 -0.145385,0.0409 -0.260076,0.0733 -0.385799,0.0733 -0.0521,0 -0.104319,-0.005 -0.158929,-0.0172 l 6.220728,-2.31795 c 0.02316,-0.008 0.03616,-0.0333 0.03026,-0.0575 -0.0053,-0.022 -0.02491,-0.0372 -0.04697,-0.0372 -0.0019,0 -0.0042,2.2e-4 -0.0062,4.4e-4 l -6.356172,0.81263 4.203477,-1.88022 c 0.02394,-0.0108 0.03504,-0.0387 0.02534,-0.0629 -0.0075,-0.019 -0.02578,-0.0308 -0.04511,-0.0308 -0.0053,0 -0.01088,10e-4 -0.01638,0.003 l -4.358583,1.57475 c 0.214417,-0.19179 0.344837,-0.36016 0.394537,-0.44356 0.309774,-0.52114 0.653301,-0.6314 1.017144,-0.74837 0.257236,-0.0826 0.523319,-0.16813 0.784814,-0.4013 0.157727,-0.14008 0.284324,-0.32825 0.418349,-0.52741 0.221736,-0.32924 0.450899,-0.66958 0.837681,-0.8046 0.229819,-0.0801 1.387979,-0.5141 1.618562,-1.18775 0.0066,-0.0193 8.7e-4,-0.0405 -0.01464,-0.0534 -0.0088,-0.008 -0.0201,-0.0116 -0.03113,-0.0116 -0.0082,0 -0.01629,0.002 -0.02359,0.006 -0.634404,0.35604 -1.000214,0.38804 -1.322878,0.41584 -0.189841,0.0165 -0.368977,0.0321 -0.575311,0.11223 -0.293391,0.11411 -0.459747,0.26486 -0.620751,0.41066 -0.1432,0.12963 -0.291206,0.26388 -0.533805,0.37754 -0.139267,0.0655 -0.310321,0.10097 -0.508463,0.14217 -0.286727,0.0595 -0.611467,0.12699 -0.948986,0.308 -0.577605,0.31041 -0.83353,0.57384 -1.020203,0.76608 -0.149535,0.15383 -0.256689,0.26417 -0.458654,0.32747 l 4.241489,-5.14723 c 0.01583,-0.0192 0.01474,-0.0472 -0.0023,-0.065 -0.0095,-0.0102 -0.02228,-0.0152 -0.03506,-0.0152 -0.01037,0 -0.02068,0.003 -0.02938,0.01 l -5.101126,3.90545 2.707362,-3.74568 c 0.01538,-0.0213 0.01133,-0.0511 -0.0092,-0.0673 -0.0089,-0.007 -0.01945,-0.0105 -0.03004,-0.0105 -0.01387,0 -0.02732,0.006 -0.03692,0.0173 l -3.007852,3.57633 c 0.09077,-0.27487 0.119973,-0.4864 0.121573,-0.5833 0.0098,-0.60763 0.252538,-0.87635 0.509883,-1.16079 0.181648,-0.20126 0.369632,-0.40923 0.4805,-0.74287 0.06674,-0.2006 0.08301,-0.42716 0.100273,-0.66694 0.0284,-0.3969 0.058,-0.80712 0.325941,-1.11886 0.159256,-0.1853 0.946801,-1.14483 0.812558,-1.84456 -0.0038,-0.0199 -0.01944,-0.0349 -0.03943,-0.0389 -0.0028,-4.4e-4 -0.0055,-8.8e-4 -0.0083,-8.8e-4 -0.01693,0 -0.03282,0.009 -0.04162,0.0239 -0.372691,0.62854 -0.673727,0.84036 -0.939592,1.02743 -0.156089,0.1097 -0.303439,0.21347 -0.442379,0.38667 -0.197269,0.24648 -0.266517,0.46073 -0.333587,0.66815 -0.05964,0.18442 -0.121136,0.37523 -0.27504,0.59618 -0.08804,0.12632 -0.21835,0.24307 -0.369414,0.37831 -0.218896,0.19598 -0.467174,0.41825 -0.66914,0.74485 -0.346366,0.55976 -0.437247,0.91683 -0.503657,1.1774 -0.05156,0.20225 -0.08891,0.34871 -0.220971,0.49924 l 1.119274,-6.59478 c 0.004,-0.0245 -0.0106,-0.0482 -0.0343,-0.0552 -0.0043,-0.001 -0.0092,-0.002 -0.01365,-0.002 -0.01901,0 -0.03697,0.0115 -0.04457,0.03 l -2.479509,5.9515 0.485416,-4.60717 c 0.0026,-0.0262 -0.01551,-0.0496 -0.04129,-0.0536 -0.0023,-4.4e-4 -0.0048,-4.4e-4 -0.007,-4.4e-4 -0.02293,0 -0.04332,0.0166 -0.04762,0.0402 l -0.829161,4.60772 c -0.05745,-0.28467 -0.137407,-0.48418 -0.184707,-0.56978 -0.293172,-0.53115 -0.216278,-0.88602 -0.134898,-1.26191 0.05768,-0.26585 0.1171,-0.54051 0.04752,-0.88547 -0.04173,-0.20743 -0.140032,-0.41177 -0.244237,-0.6281 -0.172364,-0.35795 -0.350303,-0.72812 -0.273183,-1.13306 0.04598,-0.24043 0.25232,-1.46735 -0.211578,-2.00664 -0.0093,-0.0111 -0.02294,-0.0171 -0.0367,-0.0171 -0.0057,0 -0.0112,0.001 -0.0166,0.003 -0.0189,0.007 -0.03168,0.0249 -0.0319,0.0452 -0.01103,0.73197 -0.166465,1.06692 -0.303985,1.36248 -0.0805,0.17364 -0.156853,0.33782 -0.191043,0.55767 -0.04872,0.31317 -0.0022,0.5338 0.04271,0.74716 0.03998,0.18981 0.08116,0.3859 0.05767,0.65439 -0.01343,0.15428 -0.06838,0.32131 -0.132167,0.51454 -0.09219,0.28005 -0.196833,0.59728 -0.209503,0.98198 -0.02239,0.65912 0.07603,1.0141 0.147897,1.27324 0.05637,0.20247 0.09689,0.34871 0.05571,0.54832 l -2.303212,-6.27248 c -0.0071,-0.0196 -0.02556,-0.0319 -0.04544,-0.0319 -0.004,0 -0.0078,1e-5 -0.01158,0.001 -0.02403,0.006 -0.03978,0.0291 -0.03648,0.0536 l 0.806769,6.40276 -1.8665131,-4.23425 c -0.00819,-0.0182 -0.025888,-0.029 -0.044566,-0.029 -0.00601,0 -0.012123,10e-4 -0.018023,0.003 -0.024135,0.01 -0.036485,0.0373 -0.027635,0.0619 l 1.5725771,4.41758 c -0.194319,-0.22272 -0.365809,-0.35807 -0.450899,-0.40967 -0.5177484,-0.31229 -0.6273055,-0.65847 -0.743198,-1.02522 -0.082031,-0.25914 -0.1669026,-0.52708 -0.3981414,-0.7904 -0.1390491,-0.15857 -0.3256131,-0.28599 -0.5232092,-0.4209 -0.327033,-0.22316 -0.664989,-0.45401 -0.799232,-0.84388 -0.079628,-0.23152 -0.5104293,-1.39847 -1.1792414,-1.63098 -0.00535,-0.002 -0.010597,-0.003 -0.016057,-0.003 -0.014091,0 -0.027639,0.006 -0.037029,0.0174 -0.013,0.0155 -0.01496,0.0376 -0.00524,0.0552 0.3539031,0.63943 0.3853611,1.00783 0.4132151,1.33299 0.016384,0.19103 0.031786,0.37138 0.111414,0.57913 0.113271,0.296 0.2630246,0.4637 0.4078629,0.62612 0.1286723,0.14415 0.2616045,0.29303 0.3745478,0.5372 0.064992,0.1403 0.100054,0.31273 0.140906,0.51234 0.058984,0.28874 0.1260508,0.61621 0.3057333,0.95545 0.3079179,0.58221 0.5694132,0.84014 0.7604556,1.02831 0.147569,0.1458 0.2545042,0.25121 0.3180762,0.44048 l -5.100907,-4.26594 c -0.00907,-0.007 -0.020098,-0.0112 -0.031021,-0.0112 -0.012233,0 -0.024143,0.005 -0.033533,0.0135 -0.0178,0.0171 -0.020094,0.0452 -0.00502,0.065 l 3.8768816,5.13876 -3.7182804,-2.72696 c -0.00874,-0.006 -0.018678,-0.009 -0.028727,-0.009 -0.014309,0 -0.028621,0.006 -0.038121,0.0186 -0.01606,0.0206 -0.01322,0.0506 0.00666,0.0675 l 3.5407825,3.02186 c -0.2811567,-0.0962 -0.4979772,-0.12664 -0.5974852,-0.12864 -0.6031652,-0.01 -0.8699035,-0.25452 -1.1524802,-0.51343 -0.1995622,-0.18311 -0.4060059,-0.37248 -0.7371897,-0.48428 -0.1991253,-0.0671 -0.4238103,-0.0835 -0.6618213,-0.1009 -0.3939907,-0.0286 -0.8014166,-0.0583 -1.1110822,-0.32847 -0.1596935,-0.13919 -0.991039,-0.83375 -1.665094,-0.83375 -0.057673,0 -0.1132707,0.005 -0.1654827,0.0153 -0.019879,0.004 -0.035066,0.0197 -0.038776,0.0397 -0.00339,0.0198 0.00579,0.0399 0.022938,0.0503 0.6237003,0.37567 0.8338578,0.67894 1.0194387,0.94644 0.1089018,0.15735 0.2119052,0.30579 0.3838323,0.44576 0.2447833,0.19895 0.4575623,0.26871 0.6634598,0.33617 0.1830686,0.0602 0.3724725,0.12214 0.5915869,0.27707 0.1257231,0.0888 0.2417248,0.2203 0.3761863,0.37248 0.1944284,0.22051 0.4149627,0.47019 0.7389373,0.67365 0.5558688,0.34915 0.9101,0.44048 1.1689738,0.50738 0.2056791,0.053 0.3534666,0.0914 0.5074644,0.23421 L 0.774444,276.35144 c -0.002622,-4.4e-4 -0.005461,-6.6e-4 -0.008083,-6.6e-4 -0.0212998,0 -0.040633,0.0139 -0.046641,0.0351 -0.006991,0.024 0.005025,0.0488 0.0277443,0.0588 l 5.9081128,2.49797 -4.5737656,-0.48879 c -0.00152,-2.2e-4 -0.00316,-2.2e-4 -0.00502,-2.2e-4 -0.023703,0 -0.044461,0.0175 -0.048061,0.0419 -0.00371,0.026 0.013763,0.05 0.039323,0.055 l 4.5762778,0.83519 c -0.2876012,0.0581 -0.4883648,0.13994 -0.5744378,0.18794 -0.2560338,0.14338 -0.4886926,0.21028 -0.7319466,0.21028 -0.1820856,0 -0.3469128,-0.0362 -0.5271415,-0.0761 -0.1746579,-0.0382 -0.3553234,-0.0779 -0.5611117,-0.0779 -0.1056249,0 -0.2073176,0.0105 -0.311304,0.0317 -0.2057884,0.0419 -0.4088459,0.14118 -0.6235911,0.24605 -0.2957934,0.14437 -0.6017451,0.29391 -0.9283412,0.29391 -0.066193,0 -0.1323861,-0.006 -0.1966131,-0.0188 -0.1327138,-0.0257 -0.4836681,-0.0857 -0.8747096,-0.0857 -0.51403383,0 -0.88989244,0.10069 -1.11676204,0.29886 -0.0152921,0.0133 -0.0207531,0.0348 -0.0138721,0.0538 0.006881,0.0189 0.0247951,0.0318 0.0448933,0.0321 0.72659444,0.011 1.05908894,0.16781 1.35247934,0.30613 0.1723641,0.0814 0.3353345,0.15805 0.5535749,0.19245 0.089787,0.014 0.1748769,0.021 0.2598569,0.021 0.1820856,0 0.3345699,-0.0325 0.4895665,-0.0657 0.1390491,-0.0296 0.296558,-0.0634 0.4871635,-0.0634 0.050573,0 0.1025669,0.002 0.1546689,0.007 0.1529213,0.0138 0.3185131,0.0692 0.5102109,0.13314 0.2778797,0.0931 0.5930067,0.19838 0.974873,0.21128 0.064118,0.002 0.1252859,0.003 0.1837239,0.003 0.4478409,0 0.7385005,-0.0611 0.9415581,-0.11455 0.049372,-0.0129 0.095248,-0.0258 0.1386122,-0.038 0.1453844,-0.0409 0.2600753,-0.0731 0.3857985,-0.0731 0.052102,0 0.1043143,0.006 0.1591473,0.017 l -6.22029065,2.31816 c -0.0231566,0.009 -0.0361546,0.0333 -0.0302566,0.0575 0.005243,0.022 0.0249043,0.0372 0.0468594,0.0372 0.002075,0 0.00426,-2.2e-4 0.006335,-4.4e-4 l 6.35562595,-0.81252 -4.2029316,1.88011 c -0.023921,0.0107 -0.035061,0.0386 -0.025341,0.0629 0.00754,0.0191 0.025778,0.0308 0.045112,0.0308 0.00535,0 0.010924,-0.001 0.016384,-0.003 l 4.3578189,-1.57409 c -0.2145266,0.1918 -0.3445092,0.35969 -0.3937722,0.44279 -0.3099932,0.52125 -0.6537384,0.63173 -1.0175817,0.7487 -0.2571262,0.0826 -0.5231,0.16814 -0.7848138,0.40098 -0.1575089,0.14018 -0.2839966,0.32835 -0.4179119,0.52752 -0.2217359,0.32923 -0.4508993,0.66958 -0.8374624,0.8047 -0.2298188,0.08 -1.3876512,0.51322 -1.6192176,1.18764 -0.00655,0.0193 -8.73e-4,0.0406 0.014528,0.0534 0.00896,0.007 0.020098,0.0114 0.031349,0.0114 0.00808,0 0.016274,-0.002 0.023484,-0.006 0.6348416,-0.35625 1.0006511,-0.38795 1.3234242,-0.41605 0.1896224,-0.0163 0.3687587,-0.0319 0.574984,-0.11202 0.2933903,-0.11411 0.459856,-0.26486 0.6208603,-0.41088 0.1430906,-0.12963 0.2910965,-0.26387 0.5339136,-0.37754 0.1390491,-0.0652 0.3099932,-0.10083 0.507917,-0.14173 0.2868366,-0.0595 0.6119035,-0.12698 0.9488765,-0.308 0.5781515,-0.31052 0.8341854,-0.57384 1.0209678,-0.7663 0.1506274,-0.15526 0.2573446,-0.26512 0.4594192,-0.32802 l -4.2425819,5.148 c -0.015843,0.0192 -0.01486,0.0472 0.00218,0.065 0.00961,0.0101 0.022392,0.0151 0.035172,0.0151 0.010377,0 0.020643,-0.003 0.029383,-0.01 l 5.101344,-3.90546 -2.7071432,3.74546 c -0.015507,0.0212 -0.011356,0.0511 0.00907,0.0672 0.00896,0.007 0.019552,0.0105 0.030038,0.0105 0.013873,0 0.02742,-0.006 0.03692,-0.0172 l 3.0077427,-3.57633 c -0.09077,0.27443 -0.1202609,0.48611 -0.1217909,0.58331 -0.00983,0.60774 -0.2526478,0.87656 -0.5096647,1.161 -0.1818671,0.20104 -0.369851,0.40901 -0.4806097,0.74276 -0.066849,0.20093 -0.083124,0.4275 -0.1003818,0.6676 -0.0284,0.39646 -0.057782,0.80657 -0.3258316,1.11831 -0.1591473,0.1853 -0.9466918,1.14516 -0.8124488,1.84423 0.00382,0.0202 0.019443,0.0351 0.039432,0.0391 0.00284,4.4e-4 0.00546,7.7e-4 0.0083,7.7e-4 0.016821,0 0.032656,-0.009 0.041616,-0.0239 0.3726909,-0.6281 0.6735089,-0.83992 0.9393734,-1.02665 0.1560889,-0.10993 0.3034395,-0.21348 0.4422701,-0.38701 0.1973777,-0.24659 0.2668473,-0.46094 0.3338053,-0.66826 0.05953,-0.18442 0.1211355,-0.37522 0.2748213,-0.59596 0.088148,-0.12665 0.2186774,-0.24362 0.3697418,-0.37897 0.2188958,-0.19598 0.4667368,-0.41803 0.6691398,-0.74462 0.346257,-0.55977 0.437247,-0.91673 0.503657,-1.17741 0.05221,-0.20511 0.08869,-0.34904 0.220097,-0.49858 l -1.1184002,6.59456 c -0.00415,0.0245 0.010486,0.0481 0.034298,0.0551 0.00447,10e-4 0.00906,0.002 0.013654,0.002 0.019006,0 0.036806,-0.0113 0.044566,-0.03 l 2.4791812,-5.95139 -0.485197,4.60695 c -0.0026,0.0262 0.01562,0.0496 0.0414,0.0536 0.0023,3.3e-4 0.0047,3.3e-4 0.007,3.3e-4 0.02294,0 0.04332,-0.0167 0.04762,-0.0401 l 0.828943,-4.60815 c 0.05767,0.28576 0.137847,0.48519 0.184707,0.56999 0.293172,0.53115 0.216279,0.88602 0.134789,1.26191 -0.05752,0.26585 -0.11709,0.54073 -0.04762,0.8857 0.04183,0.2072 0.140032,0.41132 0.244237,0.62765 0.172255,0.35817 0.350513,0.72823 0.273183,1.13339 -0.04588,0.24076 -0.251446,1.46845 0.211687,2.00654 0.0094,0.011 0.02294,0.017 0.03681,0.017 z"
       style="fill:url(#radialGradient5004);fill-opacity:1;fill-rule:nonzero;stroke:#4d4d4d;stroke-width:0;stroke-linecap:round;stroke-linejoin:round;stroke-miterlimit:4;stroke-dasharray:none;stroke-opacity:1"
       id="path4757"
       inkscape:connector-curvature="0"
       sodipodi:nodetypes="ccccccccccccsccccscccccccccscccccccscccsccccsccccccccsccccccccccccsccccsccccscsccscscccccscscccsccscccsccccscccccccccscccccccccccsccccscccccccccscccccccccccsccccsccccccccssccccccccccsccccscccccccccscccccccccccsccccsccccccccsccccccccccccsccccsccccscsccscscccccscscccsccscccsccccscccccccccscccccccccccsccccscccccccccscccccccccccsccccscccccccccc" />
    <path
       d="m 20.324787,280.72781 c -0.28203,3.72191 -3.505392,6.50884 -7.19997,6.22538 -3.6944679,-0.28401 -6.4610319,-3.53111 -6.1793291,-7.25292 0.2817028,-3.72235 3.5050641,-6.50916 7.1993141,-6.22527 3.694796,0.28368 6.46147,3.53111 6.179985,7.25281 z"
       style="fill:none;stroke:#4d4d4d;stroke-width:0.21166667;stroke-linecap:round;stroke-linejoin:round;stroke-miterlimit:4;stroke-dasharray:none;stroke-opacity:1"
       id="path4759"
       inkscape:connector-curvature="0" />
    <path
       d="m 9.6405066,276.49378 c 0.5742194,0.37996 1.0496954,-0.0658 1.5745424,-0.3058 0.364827,-0.16627 1.115343,-0.71887 1.673177,-0.1239 0.344292,-0.67739 1.049696,-0.99144 1.64019,-0.89186 0.590495,0.0988 1.361218,0.14811 1.607093,-0.52091"
       style="fill:none;stroke:#4d4d4d;stroke-width:0.21166667;stroke-linecap:round;stroke-linejoin:round;stroke-miterlimit:4;stroke-dasharray:none;stroke-opacity:1"
       id="path4761"
       inkscape:connector-curvature="0" />
    <path
       d="m 14.807061,278.03012 c 0.492297,-1.07385 1.312392,-0.85917 2.06673,-0.66066 0.754448,0.19828 1.018128,-0.47284 0.967664,-0.59465 -0.163953,-0.39679 -1.492402,-0.89229 -2.608181,-0.38029 -2.316539,1.06385 -0.557289,4.57724 -0.557289,4.57724"
       style="fill:none;stroke:#4d4d4d;stroke-width:0.21166667;stroke-linecap:round;stroke-linejoin:round;stroke-miterlimit:4;stroke-dasharray:none;stroke-opacity:1"
       id="path4763"
       inkscape:connector-curvature="0" />
    <path
       d="m 17.218301,277.71652 c -0.139377,0.48746 -0.549533,1.02456 -1.344942,1.12381 -0.570506,0.0708 -0.746365,-0.0332 -0.926703,0.2477 -0.131294,-0.49572 0.172255,-1.22252 0.647731,-1.47099 0.475803,-0.24758 1.230142,-0.0493 1.623914,0.0995 z"
       style="fill:none;stroke:#4d4d4d;stroke-width:0.21166667;stroke-linecap:round;stroke-linejoin:round;stroke-miterlimit:4;stroke-dasharray:none;stroke-opacity:1"
       id="path4765"
       inkscape:connector-curvature="0" />
    <path
       d="m 15.930923,278.63368 c 0.373346,0 0.676239,-0.31823 0.676239,-0.71062 0,-0.14679 -0.04227,-0.28335 -0.115018,-0.39669 -0.314035,-0.0459 -0.645219,-0.0405 -0.897757,0.0907 -0.127253,0.0666 -0.241725,0.16814 -0.339486,0.28951 -2.18e-4,0.006 -8.73e-4,0.0109 -8.73e-4,0.0165 0,0.39239 0.303002,0.71062 0.676895,0.71062 z"
       style="fill:none;stroke:#4d4d4d;stroke-width:0.21166667;stroke-linecap:round;stroke-linejoin:round;stroke-miterlimit:4;stroke-dasharray:none;stroke-opacity:1"
       id="path4767"
       inkscape:connector-curvature="0" />
    <path
       d="m 15.925243,278.17867 c -0.154451,0 -0.280065,-0.12654 -0.280065,-0.28169 0,-0.15571 0.125614,-0.28225 0.280065,-0.28225 0.154122,0 0.279627,0.12654 0.279627,0.28225 0,0.15515 -0.125505,0.28169 -0.279627,0.28169 z"
       style="fill:none;stroke:#4d4d4d;stroke-width:0.21166667;stroke-linecap:round;stroke-linejoin:round;stroke-miterlimit:4;stroke-dasharray:none;stroke-opacity:1"
       id="path4769"
       inkscape:connector-curvature="0" />
    <path
       d="m 12.327333,278.73866 c -0.983284,-0.64659 -1.564712,-0.0255 -2.09939,0.54622 -0.5345693,0.57209 -1.1119563,0.1447 -1.1335838,0.0141 -0.070234,-0.42354 0.7938798,-1.5545 2.0088388,-1.71769 0.775639,-0.10421 1.347346,0.19367 1.766896,0.65615"
       style="fill:none;stroke:#4d4d4d;stroke-width:0.21166667;stroke-linecap:round;stroke-linejoin:round;stroke-miterlimit:4;stroke-dasharray:none;stroke-opacity:1"
       id="path4771"
       inkscape:connector-curvature="0" />
    <path
       d="m 10.119259,279.76322 c 0.375204,0.33847 1.005785,0.57384 1.731943,0.23196 0.520915,-0.24517 0.614743,-0.42728 0.91578,-0.2861 -0.1503,-0.49 -0.790712,-0.94347 -1.324517,-0.89901 -0.533695,0.0448 -1.068264,0.61654 -1.323206,0.95315 z"
       style="fill:none;stroke:#4d4d4d;stroke-width:0.21166667;stroke-linecap:round;stroke-linejoin:round;stroke-miterlimit:4;stroke-dasharray:none;stroke-opacity:1"
       id="path4773"
       inkscape:connector-curvature="0" />
    <path
       d="m 11.693584,279.85125 c -0.316438,0.19983 -0.741013,0.0924 -0.948003,-0.23978 -0.07733,-0.12478 -0.11338,-0.2631 -0.111523,-0.39833 0.241943,-0.20654 0.525066,-0.37941 0.808407,-0.40307 0.142982,-0.0117 0.293391,0.0128 0.440195,0.0635 0.0029,0.005 0.0066,0.009 0.0093,0.0134 0.2071,0.33231 0.118187,0.76399 -0.19836,0.96426 z"
       style="fill:none;stroke:#4d4d4d;stroke-width:0.21166667;stroke-linecap:round;stroke-linejoin:round;stroke-miterlimit:4;stroke-dasharray:none;stroke-opacity:1"
       id="path4775"
       inkscape:connector-curvature="0" />
    <path
       d="m 11.317616,279.50166 c -0.09721,0 -0.186018,-0.0495 -0.237465,-0.13238 -0.08203,-0.13149 -0.04238,-0.3059 0.08848,-0.38865 0.04435,-0.0282 0.09558,-0.043 0.148006,-0.043 0.097,0 0.185908,0.0495 0.237465,0.13227 0.03976,0.0638 0.05254,0.1392 0.03583,0.2127 -0.01671,0.0734 -0.06073,0.13601 -0.124303,0.17595 -0.04457,0.0283 -0.09579,0.0431 -0.148006,0.0431 z"
       style="fill:none;stroke:#4d4d4d;stroke-width:0.21166667;stroke-linecap:round;stroke-linejoin:round;stroke-miterlimit:4;stroke-dasharray:none;stroke-opacity:1"
       id="path4777"
       inkscape:connector-curvature="0" />
    <path
       d="m 17.218301,277.71652 c 0,0 0.541232,0.37181 1.123534,-0.0249 -0.205133,0.25605 -2.137183,0.98593 -1.623914,2.85019 0.434842,1.57805 2.197806,1.38791 2.197806,1.38791"
       style="fill:none;stroke:#4d4d4d;stroke-width:0.21166667;stroke-linecap:round;stroke-linejoin:round;stroke-miterlimit:4;stroke-dasharray:none;stroke-opacity:1"
       id="path4779"
       inkscape:connector-curvature="0" />
    <path
       d="m 13.47031,281.23574 c 0,0 -0.336863,0.58287 0.159912,0.66529 0.324084,0.0537 0.455269,-0.004 0.525066,0.0205 0.151938,0.0538 0.200982,0.23966 0.528671,0.11565 0.376732,-0.14239 0.2296,-0.25188 0.385798,-0.4089 0.155652,-0.1567 0.393663,-0.24352 0.467284,-0.49154 0.07362,-0.2477 -0.2296,-0.4626 -0.2296,-0.4626"
       style="fill:none;stroke:#4d4d4d;stroke-width:0.21166667;stroke-linecap:round;stroke-linejoin:round;stroke-miterlimit:4;stroke-dasharray:none;stroke-opacity:1"
       id="path4781"
       inkscape:connector-curvature="0" />
    <path
       d="m 15.069757,282.78518 c -0.23812,0.1776 -0.303658,-0.47514 -0.385798,-0.74803"
       style="fill:none;stroke:#4d4d4d;stroke-width:0.21166667;stroke-linecap:round;stroke-linejoin:round;stroke-miterlimit:4;stroke-dasharray:none;stroke-opacity:1"
       id="path4783"
       inkscape:connector-curvature="0" />
    <path
       d="m 15.126994,285.60655 c 0.221408,-0.0746 0.565808,-0.0746 0.775092,0.0373 0.147569,-0.27289 0.295247,-0.39691 0.491751,-0.47129"
       style="fill:none;stroke:#4d4d4d;stroke-width:0.21166667;stroke-linecap:round;stroke-linejoin:round;stroke-miterlimit:4;stroke-dasharray:none;stroke-opacity:1"
       id="path4785"
       inkscape:connector-curvature="0" />
    <path
       d="m 17.885693,281.79891 c -0.172146,0.27279 -0.550516,0.68774 -0.716436,0.80856"
       style="fill:none;stroke:#4d4d4d;stroke-width:0.21166667;stroke-linecap:round;stroke-linejoin:round;stroke-miterlimit:4;stroke-dasharray:none;stroke-opacity:1"
       id="path4787"
       inkscape:connector-curvature="0" />
    <path
       d="m 12.166657,283.86432 c 0.30475,0.10058 0.860509,0.18707 1.065096,0.17408"
       style="fill:none;stroke:#4d4d4d;stroke-width:0.21166667;stroke-linecap:round;stroke-linejoin:round;stroke-miterlimit:4;stroke-dasharray:none;stroke-opacity:1"
       id="path4789"
       inkscape:connector-curvature="0" />
    <path
       d="m 16.111042,283.20222 c -0.41824,0.22305 -0.349644,0.39372 -0.75565,0.55481 -0.414744,0.13568 -0.469686,-0.0403 -0.933693,0.0554 -0.463461,0.0952 -0.708681,0.30822 -1.189946,0.22602 0.697103,0.12511 0.896446,0.48593 1.658759,0.44015 0.153358,0.004 0.127034,-0.003 0.296776,-0.048 0.228508,-0.0426 0.420752,-0.0989 0.589621,-0.20137 0.705622,-0.33309 0.795737,-0.96008 1.01081,-1.18808 0.168104,-0.17826 0.381538,-0.43366 0.381538,-0.43366 -0.319933,0.37171 -0.639648,0.37171 -1.058215,0.59475 z"
       style="fill:none;stroke:#4d4d4d;stroke-width:0.21166667;stroke-linecap:round;stroke-linejoin:round;stroke-miterlimit:4;stroke-dasharray:none;stroke-opacity:1"
       id="path4791"
       inkscape:connector-curvature="0" />
    <path
       d="m 13.231753,284.0384 c 0.852755,-0.14547 1.133037,-0.67233 1.390491,-0.76124 0.298197,-0.10278 0.200109,0.1305 0.555432,-0.02 0.368977,-0.11158 0.146149,-0.22855 0.441287,-0.34001 0.254614,-0.096 0.799778,0.12401 1.550294,-0.30965 -0.319933,0.37171 -0.639648,0.37171 -1.058215,0.59475 -0.41824,0.22305 -0.349644,0.39372 -0.75565,0.55481 -0.414744,0.13568 -0.469686,-0.0403 -0.933693,0.0554 -0.463461,0.0952 -0.708681,0.30822 -1.189946,0.22602 z"
       style="fill:none;stroke:#4d4d4d;stroke-width:0.21166667;stroke-linecap:round;stroke-linejoin:round;stroke-miterlimit:4;stroke-dasharray:none;stroke-opacity:1"
       id="path4793"
       inkscape:connector-curvature="0" />
    <path
       d="m 9.7890587,280.44215 c 0.2897853,0.15163 2.3503993,0.0399 2.6218353,1.95526 0.229818,1.6214 -1.461163,2.15949 -1.461163,2.15949"
       style="fill:none;stroke:#4d4d4d;stroke-width:0.21166667;stroke-linecap:round;stroke-linejoin:round;stroke-miterlimit:4;stroke-dasharray:none;stroke-opacity:1"
       id="path4795"
       inkscape:connector-curvature="0" />
    <path
       d="m 11.082554,284.52202 c 1.624788,4.35804 1.195844,9.21587 -0.432003,12.42743 2.535107,-3.12078 3.563175,-8.31698 1.928884,-12.90335 -1.757066,-4.93035 -6.3323604,-8.17591 -10.591982,-8.62684 4.3652465,1.11325 7.3775769,4.49669 9.095101,9.10276 z"
       style="fill:url(#linearGradient5918);stroke:#4d4d4d;stroke-width:0.21166667;stroke-linecap:round;stroke-linejoin:round;stroke-miterlimit:4;stroke-dasharray:none;stroke-opacity:1;fill-opacity:1"
       id="path4797"
       inkscape:connector-curvature="0" />
    <path
       d="m 10.590585,284.50782 c -0.328126,-0.87975 -0.7162181,-1.71141 -1.1532452,-2.49026 -1.3690822,-2.09644 -1.7417732,-1.08673 -3.0781957,-2.2846 -0.016166,-0.0145 -0.03124,-0.0292 -0.046313,-0.0441 -0.1492075,0.24186 -0.435061,0.95337 0.4996156,1.95031 0.042818,0.0457 0.1864547,0.5152 0.041398,0.90264 -0.2418341,0.6468 -0.1219001,2.03735 0.602182,2.4512 -0.0213,0.19597 -0.1273615,0.53753 -0.134243,0.78523 -0.017804,0.62974 0.1264877,1.06285 0.139486,1.40122 0.01278,0.33869 -0.1659195,1.02918 0.03255,1.21811 0.2688137,0.2554 0.6736182,-0.0232 0.7718155,-0.1283 0.1843793,-0.19752 0.3048594,-0.23878 0.3344606,-0.22294 0.3921338,0.37149 0.248934,0.68312 0.2664107,0.86402 0.052976,0.55668 0.7056223,0.35806 0.7056223,0.35806 0,0 -0.3061702,0.39691 0.049918,0.61027 0.1321677,0.0789 0.2083006,-0.2445 0.6016362,0.0846 0.269469,0.22558 0.04052,0.41418 0.486071,1.00563 0.327688,0.43476 0.701908,0.35477 0.877222,0.28247 0.09492,-2.18744 -0.151611,-4.47787 -0.996391,-6.74355 z"
       style="fill:url(#linearGradient5936);stroke:#4d4d4d;stroke-width:0.21166667;stroke-linecap:round;stroke-linejoin:round;stroke-miterlimit:4;stroke-dasharray:none;stroke-opacity:1;fill-opacity:1"
       id="path4799"
       inkscape:connector-curvature="0" />
    <path
       d="m 1.987453,275.41926 c 3.5414379,1.18389 6.8857166,4.4826 8.603132,9.08856 1.624788,4.35837 1.037243,8.80874 0.05997,12.44163 1.627847,-3.21156 2.056791,-8.06939 0.432003,-12.42743 -1.7175241,-4.60607 -4.7298545,-7.98951 -9.095101,-9.10276 z"
       style="fill:url(#linearGradient5910);stroke:#4d4d4d;stroke-width:0.21166667;stroke-linecap:round;stroke-linejoin:round;stroke-miterlimit:4;stroke-dasharray:none;stroke-opacity:1;fill-opacity:1"
       id="path4801"
       inkscape:connector-curvature="0" />
    <path
       d="m 6.0775505,277.8271 c -0.097105,0.3749 -0.445547,1.25399 0.2815936,1.90586 1.3382794,1.1993 1.7099873,0.1853 3.0838756,2.29285 -0.9298705,-1.6597 -2.0836614,-3.07742 -3.3654692,-4.19871 z"
       style="fill:url(#linearGradient5944);stroke:#4d4d4d;stroke-width:0.21166667;stroke-linecap:round;stroke-linejoin:round;stroke-miterlimit:4;stroke-dasharray:none;stroke-opacity:1;fill-opacity:1"
       id="path4803"
       inkscape:connector-curvature="0" />
    <path
       d="m 9.8993804,289.03774 c -0.8434699,-0.50518 -1.0328738,-0.12742 -1.0328738,-0.12742 0.052976,0.55668 0.7056223,0.35806 0.7056223,0.35806 0,0 0.1606766,-0.14547 0.3272515,-0.23064 z"
       style="fill:none;stroke:#4d4d4d;stroke-width:0.21166667;stroke-linecap:round;stroke-linejoin:round;stroke-miterlimit:4;stroke-dasharray:none;stroke-opacity:1"
       id="path4805"
       inkscape:connector-curvature="0" />
    <path
       d="m 8.1636149,285.64726 c 0.1025665,0.22349 0.3568527,0.32549 0.5681025,0.22734 0.2115775,-0.098 0.2998349,-0.35905 0.1973777,-0.5832 -0.030584,-0.0667 -0.07515,-0.12236 -0.1279078,-0.16572 -0.248497,0.043 -0.5329305,0.24781 -0.6795165,0.34024 0.00175,0.0605 0.015074,0.12236 0.041944,0.18134 z"
       style="fill:none;stroke:#4d4d4d;stroke-width:0.21166667;stroke-linecap:round;stroke-linejoin:round;stroke-miterlimit:4;stroke-dasharray:none;stroke-opacity:1"
       id="path4807"
       inkscape:connector-curvature="0" />
    <path
       d="m 8.4871526,285.58421 -0.00393,-2.2e-4 c -0.070781,-0.002 -0.1269247,-0.0568 -0.125177,-0.12203 0.00186,-0.0638 0.05811,-0.114 0.1276892,-0.114 0.074713,0.002 0.1308569,0.0566 0.1291093,0.12159 -0.00175,0.0641 -0.057782,0.11466 -0.1276893,0.11466 z"
       style="fill:none;stroke:#4d4d4d;stroke-width:0.21166667;stroke-linecap:round;stroke-linejoin:round;stroke-miterlimit:4;stroke-dasharray:none;stroke-opacity:1"
       id="path4809"
       inkscape:connector-curvature="0" />
    <path
       d="m 8.4858419,285.27456 c 0.00208,0 0.00415,0 0.00612,1.1e-4 0.1111956,0.003 0.19847,0.0913 0.1957392,0.19686 -0.00295,0.10388 -0.09208,0.18597 -0.2005453,0.18597 -0.00208,0 -0.00415,0 -0.00623,0 -0.1109771,-0.004 -0.1984699,-0.0913 -0.1956299,-0.19741 0.00295,-0.10366 0.09219,-0.18553 0.200546,-0.18553 z m 1.092e-4,0.14668 v 0 c -0.02971,0 -0.054396,0.0194 -0.055161,0.0431 -6.554e-4,0.0245 0.023921,0.0455 0.054615,0.0464 0.031349,0 0.056035,-0.0195 0.05669,-0.0435 6.554e-4,-0.024 -0.024249,-0.0452 -0.054287,-0.046 z"
       style="fill:none;stroke:#4d4d4d;stroke-width:0.21166667;stroke-linecap:round;stroke-linejoin:round;stroke-miterlimit:4;stroke-dasharray:none;stroke-opacity:1"
       id="path4811"
       inkscape:connector-curvature="0" />
    <path
       d="m 7.1714837,283.18198 c 0.4080813,0.59772 -0.1592566,1.11974 0.6520999,1.46119 0.287492,0.12082 0.6680474,-1.46846 1.9685335,0.0113 -0.5301999,-2.60701 -2.3034311,-2.40982 -3.067382,-3.08545"
       style="fill:none;stroke:#4d4d4d;stroke-width:0.21166667;stroke-linecap:round;stroke-linejoin:round;stroke-miterlimit:4;stroke-dasharray:none;stroke-opacity:1"
       id="path4813"
       inkscape:connector-curvature="0" />
    <path
       d="m 8.0909773,284.95127 c 0,0 -0.3466943,-0.13743 -0.2673937,-0.3081"
       style="fill:none;stroke:#4d4d4d;stroke-width:0.21166667;stroke-linecap:round;stroke-linejoin:round;stroke-miterlimit:4;stroke-dasharray:none;stroke-opacity:1"
       id="path4815"
       inkscape:connector-curvature="0" />
    <path
       d="m 8.6673812,286.98103 c 0.1735657,0.0648 0.3319484,0.12929 0.411249,0.22249 0.180884,0.21128 0.1030034,0.48395 -0.062588,0.6292 -0.1761871,0.15515 -0.2949196,0.14965 -0.4159458,0.21358"
       style="fill:none;stroke:#4d4d4d;stroke-width:0.21166667;stroke-linecap:round;stroke-linejoin:round;stroke-miterlimit:4;stroke-dasharray:none;stroke-opacity:1"
       id="path4817"
       inkscape:connector-curvature="0" />
    <path
       d="M 10.350389,287.59295 C 10.077971,286.94626 9.4452043,287.16127 9.1371772,286.98708 8.6392,286.70626 8.6543829,286.12417 8.6543829,286.12417"
       style="fill:none;stroke:#4d4d4d;stroke-width:0.21166667;stroke-linecap:round;stroke-linejoin:round;stroke-miterlimit:4;stroke-dasharray:none;stroke-opacity:1"
       id="path4819"
       inkscape:connector-curvature="0" />
    <path
       d="m 8.9732238,285.127 c -0.3626419,-0.0856 -0.9383904,0.44797 -0.9501872,0.37831 -0.031895,-0.18871 -0.00218,-0.44334 0.067941,-0.55404 0.070125,-0.11058 0.8064412,-0.40901 1.0198756,-0.20368 0.2251219,0.217 0.3450559,0.46051 0.8269763,0.29435 -0.1126156,0.28951 -0.6014175,0.17045 -0.9646054,0.0851 z"
       style="fill:none;stroke:#4d4d4d;stroke-width:0.21166667;stroke-linecap:round;stroke-linejoin:round;stroke-miterlimit:4;stroke-dasharray:none;stroke-opacity:1"
       id="path4821"
       inkscape:connector-curvature="0" />
    <path
       d="m 9.2346099,285.90827 c 0,0 -0.7193853,0.56659 -1.052426,-0.22227"
       style="fill:none;stroke:#4d4d4d;stroke-width:0.21166667;stroke-linecap:round;stroke-linejoin:round;stroke-miterlimit:4;stroke-dasharray:none;stroke-opacity:1"
       id="path4823"
       inkscape:connector-curvature="0" />
    <path
       d="m 9.7967047,288.18572 c 0,0 0.2226093,0.56967 0.9344583,0.71029 -0.544728,0.0145 -0.8317826,0.14173 -0.8317826,0.14173"
       style="fill:none;stroke:#4d4d4d;stroke-width:0.21166667;stroke-linecap:round;stroke-linejoin:round;stroke-miterlimit:4;stroke-dasharray:none;stroke-opacity:1"
       id="path4825"
       inkscape:connector-curvature="0" />
  </g>
</svg>
