<?xml version="1.0" encoding="UTF-8"?>
<!DOCTYPE svg PUBLIC "-//W3C//DTD SVG 1.1//EN" "http://www.w3.org/Graphics/SVG/1.1/DTD/svg11.dtd">
<!-- Creator: CorelDRAW 2017 -->
<svg xmlns="http://www.w3.org/2000/svg" xml:space="preserve" width="30px" height="30px" version="1.1" style="shape-rendering:geometricPrecision; text-rendering:geometricPrecision; image-rendering:optimizeQuality; fill-rule:evenodd; clip-rule:evenodd"
viewBox="0 0 3000000 3000000"
 xmlns:xlink="http://www.w3.org/1999/xlink">
 <defs>
  <style type="text/css">
   <![CDATA[
    .fil2 {fill:white;fill-rule:nonzero}
    .fil0 {fill:url(#id0);fill-rule:nonzero}
    .fil1 {fill:url(#id1);fill-rule:nonzero}
   ]]>
  </style>
  <linearGradient id="id0" gradientUnits="userSpaceOnUse" x1="1128000" y1="1453000" x2="1358000" y2="2881000">
   <stop offset="0" style="stop-opacity:1; stop-color:#E6E9F1"/>
   <stop offset="1" style="stop-opacity:1; stop-color:white"/>
  </linearGradient>
  <radialGradient id="id1" gradientUnits="userSpaceOnUse" gradientTransform="matrix(0.999723 -0 -0 0.999756 416 340)" cx="1500000" cy="1390000" r="5506000" fx="1500000" fy="1390000">
   <stop offset="0" style="stop-opacity:1; stop-color:white"/>
   <stop offset="0.458824" style="stop-opacity:1; stop-color:#FFFFFE"/>
   <stop offset="0.878431" style="stop-opacity:0.498039; stop-color:#FFFEEB"/>
   <stop offset="1" style="stop-opacity:0.388235; stop-color:#FFFEEB"/>
  </radialGradient>
 </defs>
 <g id="Слой_x0020_1">
  <metadata id="CorelCorpID_0Corel-Layer"/>
  <g id="_2495092819024">
   <path class="fil0" d="M1049000 1826000c-4000,-1000 -19000,0 -32000,4000 -20000,5000 -40000,14000 -44000,18000 -5000,8000 -6000,28000 -5000,33000 22000,-14000 44000,-29000 68000,-32000 13000,-1000 36000,7000 49000,8000 -16000,-9000 -25000,-28000 -36000,-31000zm-98000 21000c-9000,-5000 -22000,-15000 -23000,-28000 -45000,-21000 -45000,-47000 -45000,-78000 0,-19000 -1000,-40000 -15000,-61000 -3000,-4000 -2000,-10000 3000,-13000 4000,-3000 10000,-2000 13000,2000 18000,26000 18000,50000 18000,72000l0 0c0,25000 1000,47000 40000,64000l0 0 0 0c2000,0 8000,-7000 16000,-16000 6000,-7000 13000,-15000 21000,-22000 28000,-25000 68000,-41000 130000,16000 -40000,-145000 -128000,-181000 -200000,-210000l-1000 -1000c-17000,-7000 -33000,-13000 -47000,-21000l1000 7000c1000,10000 1000,21000 1000,31000 -1000,10000 -3000,20000 -7000,29000 -14000,38000 -12000,94000 -2000,132000 7000,31000 23000,66000 50000,85000l12000 7000 -7000 35000c-3000,14000 -7000,31000 -7000,45000 -1000,31000 3000,60000 8000,91000l0 0c2000,14000 4000,28000 5000,41000 1000,14000 -1000,28000 -3000,41000 -1000,13000 -7000,58000 2000,67000l1000 1000c9000,8000 20000,7000 31000,4000l0 -1000c9000,-2000 20000,-9000 26000,-15000l1000 -1000c5000,-5000 11000,-11000 17000,-15000l10000 -26000 16000 16000c14000,-6000 24000,-12000 31000,-19000 7000,-8000 10000,-16000 9000,-24000 0,-8000 -4000,-16000 -11000,-22000 -6000,-6000 -16000,-12000 -28000,-15000 -5000,-1000 -8000,-7000 -7000,-12000 1000,-5000 7000,-8000 12000,-7000 15000,5000 28000,12000 37000,20000 10000,10000 16000,22000 16000,34000 1000,13000 -3000,27000 -15000,39000 -6000,8000 -16000,15000 -29000,21000 15000,18000 20000,36000 19000,59000 16000,-5000 44000,-4000 88000,22000 6000,-3000 17000,-6000 35000,-9000 -41000,-23000 -55000,-59000 -55000,-59000 -2000,-5000 1000,-10000 6000,-12000 5000,-2000 11000,1000 12000,6000 0,0 20000,49000 83000,61000 5000,1000 8000,6000 7000,12000 -1000,4000 -5000,7000 -9000,7000 -44000,2000 -69000,10000 -75000,13000l-1000 0 0 0c-11000,6000 -23000,15000 -28000,19000l-5000 14000c-5000,12000 -4000,21000 7000,28000 1000,-1000 2000,-1000 3000,-2000 21000,-11000 40000,-3000 57000,12000 13000,10000 17000,21000 20000,37000 5000,24000 13000,40000 29000,60000 10000,13000 23000,24000 40000,27000 6000,1000 13000,1000 20000,-1000l5000 -1000 1000 -16000c6000,-199000 -19000,-407000 -96000,-613000 -31000,-83000 -68000,-161000 -109000,-234000 -76000,-116000 -119000,-130000 -167000,-145000 -34000,-11000 -70000,-22000 -120000,-65000 -10000,22000 -10000,46000 -4000,69000 9000,34000 32000,66000 56000,92000 1000,1000 2000,2000 2000,3000 18000,12000 40000,21000 64000,31000l0 0c82000,33000 183000,74000 220000,258000 1000,3000 0,7000 -3000,9000 -4000,3000 -10000,3000 -13000,-1000 -66000,-74000 -103000,-62000 -128000,-40000 -7000,7000 -14000,14000 -19000,20000 -9000,10000 -17000,19000 -25000,22000 3000,3000 10000,7000 14000,9000 9000,-6000 25000,-14000 43000,-19000 21000,-6000 45000,-9000 59000,0 5000,5000 9000,8000 14000,13000 14000,15000 26000,28000 60000,16000 5000,-1000 10000,1000 12000,6000 1000,3000 0,5000 0,7000l-1000 1000c-13000,32000 -59000,23000 -96000,15000l0 0c6000,13000 6000,27000 2000,40000 -4000,12000 -13000,22000 -25000,28000l-1000 0c-2000,2000 -5000,3000 -8000,3000 23000,2000 46000,-15000 46000,-15000 4000,-4000 10000,-3000 14000,1000 3000,4000 3000,10000 -1000,13000 0,0 -24000,19000 -52000,21000 2000,15000 9000,48000 41000,66000 8000,4000 19000,6000 32000,7000 32000,4000 68000,8000 88000,55000 2000,5000 0,11000 -5000,13000 -5000,2000 -11000,0 -13000,-5000 -15000,-37000 -46000,-40000 -72000,-44000 -15000,-1000 -28000,-3000 -40000,-9000l0 -1000c-42000,-23000 -49000,-67000 -50000,-83000 -17000,-4000 -33000,-17000 -45000,-45000l0 0 -2000 -3000c-1000,-2000 -2000,-5000 -3000,-7000 -6000,1000 -10000,-2000 -11000,-9000 -2000,-10000 -2000,-21000 0,-32000 0,-6000 2000,-12000 3000,-18000zm71000 25000l1000 1000c5000,5000 8000,12000 8000,20000 -1000,7000 -4000,14000 -9000,19000 -5000,5000 -12000,8000 -20000,8000l-2000 0c-4000,-1000 -8000,-2000 -12000,-4000 3000,3000 6000,5000 10000,6000 7000,3000 16000,3000 23000,0l1000 0c7000,-4000 12000,-10000 15000,-18000 3000,-7000 2000,-16000 -1000,-25000 -2000,-2000 -3000,-4000 -5000,-6000l-2000 -3000c-2000,1000 -4000,1000 -7000,2000zm80000 372000c2000,-2000 8000,-7000 16000,-12000 -45000,-24000 -62000,-17000 -68000,-12000 2000,21000 16000,26000 37000,25000l15000 -1000zm-295000 -902000c49000,43000 84000,54000 117000,65000 28000,9000 55000,17000 87000,44000l-5000 -7000 -1000 -1000c-65000,-95000 -142000,-181000 -227000,-258000 -14000,52000 -22000,102000 19000,145000l10000 11000 0 1000zm452000 457000c76000,200000 105000,411000 98000,610000 -6000,167000 -36000,329000 -97000,484000l-1000 3000c71000,-107000 122000,-229000 154000,-352000 43000,-161000 55000,-332000 36000,-497000 -11000,-100000 -29000,-188000 -65000,-287000 -80000,-224000 -222000,-411000 -394000,-549000 -99000,-80000 -228000,-153000 -346000,-198000 -36000,-14000 -74000,-26000 -111000,-36000l6000 3000 0 0c138000,58000 259000,140000 365000,245000 152000,151000 270000,347000 355000,574000zm-232000 -359000l2000 4000 3000 3000c7000,11000 15000,23000 22000,34000l0 0 3000 4000c60000,95000 113000,200000 155000,312000 78000,209000 103000,419000 97000,621000 -5000,154000 -25000,297000 -59000,447000l1000 -1000 1000 -3000c53000,-144000 80000,-299000 86000,-452000 7000,-197000 -23000,-406000 -97000,-603000 -84000,-225000 -201000,-418000 -351000,-567000 -33000,-33000 -67000,-63000 -104000,-92000l-1000 -1000c-52000,-41000 -107000,-76000 -165000,-107000l-3000 -1000c55000,34000 108000,73000 157000,116000 93000,80000 182000,183000 253000,286000z"/>
   <path class="fil1" d="M893000 1853000c-15000,11000 -33000,23000 -58000,36000 -32000,17000 -63000,24000 -91000,29000 -19000,4000 -35000,7000 -48000,14000 -24000,10000 -38000,23000 -51000,36000 -16000,13000 -32000,28000 -60000,39000 -20000,7000 -37000,9000 -55000,10000 -31000,3000 -66000,6000 -127000,40000 0,0 -1000,0 -2000,0 -1000,0 -2000,0 -3000,-1000 -1000,-1000 -2000,-3000 -1000,-5000 22000,-64000 133000,-105000 155000,-113000 37000,-13000 59000,-45000 80000,-76000 13000,-19000 25000,-37000 40000,-50000 25000,-22000 50000,-30000 75000,-38000 29000,-9000 56000,-18000 81000,-48000 1000,10000 3000,20000 5000,29000 10000,40000 30000,77000 60000,97000l0 1000zm-68000 -172000l-360000 129000c0,0 -1000,0 -1000,0 -2000,0 -4000,-1000 -5000,-3000 -1000,-2000 0,-4000 3000,-6000l367000 -163000c-2000,13000 -4000,28000 -4000,43000zm7000 -54000l-576000 73000c-1000,0 -1000,0 -1000,0 -2000,0 -4000,-1000 -4000,-3000 -1000,-3000 0,-5000 2000,-6000l545000 -202000c10000,15000 21000,30000 36000,46000 1000,0 2000,3000 3000,8000 2000,5000 3000,11000 4000,17000 1000,9000 1000,18000 1000,28000 -1000,8000 -3000,15000 -5000,23000 -2000,5000 -4000,10000 -5000,16000zm-41000 -149000l-8000 2000c-19000,5000 -47000,11000 -90000,11000 -5000,0 -11000,0 -17000,-1000 -37000,-1000 -67000,-11000 -94000,-20000 -18000,-6000 -34000,-11000 -49000,-12000 -5000,-1000 -9000,-1000 -14000,-1000 -19000,0 -34000,3000 -47000,6000 -15000,3000 -29000,6000 -47000,6000 -8000,0 -16000,0 -25000,-2000 -21000,-3000 -36000,-10000 -53000,-18000 -28000,-13000 -59000,-28000 -129000,-29000 -2000,0 -4000,-1000 -4000,-3000 -1000,-2000 -1000,-4000 1000,-5000 22000,-19000 58000,-29000 107000,-29000 37000,0 71000,6000 84000,8000 6000,2000 12000,2000 18000,2000 32000,0 61000,-14000 89000,-28000 21000,-10000 40000,-19000 60000,-23000 10000,-2000 20000,-3000 30000,-3000 19000,0 37000,4000 53000,7000 18000,4000 33000,8000 51000,8000 22000,0 43000,-6000 67000,-19000 2000,4000 5000,7000 8000,10000 -9000,17000 -19000,48000 -9000,89000 4000,13000 10000,28000 18000,44000zm-37000 -176000l-360000 -66000c-3000,0 -4000,-2000 -4000,-5000 0,-2000 2000,-4000 5000,-4000 0,0 0,0 0,0l351000 37000c1000,13000 3000,25000 8000,38000zm-8000 -65000l-478000 -201000c-3000,-1000 -4000,-3000 -3000,-5000 0,-2000 2000,-4000 4000,-4000 1000,0 1000,0 1000,1000l395000 67000c32000,23000 64000,48000 95000,75000 -6000,22000 -12000,44000 -14000,67000zm-85000 -240000c-11000,-13000 -22000,-25000 -33000,-32000 -21000,-15000 -39000,-21000 -57000,-27000 -19000,-6000 -40000,-13000 -63000,-32000 -17000,-13000 -27000,-27000 -37000,-42000 -18000,-25000 -38000,-54000 -98000,-90000 -1000,-1000 -2000,-3000 -2000,-5000 1000,-2000 2000,-3000 4000,-3000 5000,-1000 10000,-2000 16000,-2000 64000,0 144000,66000 159000,79000 30000,26000 69000,29000 107000,31000 22000,2000 44000,4000 63000,10000 32000,11000 51000,29000 70000,46000 28000,25000 53000,48000 111000,49000 9000,0 30000,3000 57000,12000l-339000 -287000c-2000,-2000 -2000,-4000 -1000,-7000 1000,-1000 3000,-1000 4000,-1000 1000,0 2000,0 3000,1000l356000 259000 -371000 -488000c-2000,-2000 -2000,-5000 0,-7000 1000,0 2000,-1000 3000,-1000 1000,0 2000,0 3000,1000l489000 405000c-7000,-18000 -17000,-28000 -31000,-41000 -18000,-18000 -43000,-43000 -73000,-98000 -17000,-32000 -23000,-64000 -29000,-91000 -4000,-19000 -7000,-35000 -13000,-49000 -11000,-23000 -24000,-37000 -36000,-51000 -14000,-15000 -28000,-31000 -39000,-59000 -8000,-20000 -9000,-37000 -11000,-55000 -3000,-31000 -6000,-66000 -40000,-127000 0,-1000 0,-3000 1000,-5000 1000,-1000 2000,-2000 3000,-2000 1000,0 2000,0 2000,1000 64000,22000 105000,133000 113000,155000 13000,37000 45000,58000 76000,80000 19000,12000 37000,25000 50000,40000 23000,25000 31000,50000 39000,75000 11000,35000 21000,68000 71000,97000 8000,5000 24000,18000 43000,39000l-151000 -420000c-1000,-2000 1000,-5000 3000,-5000 1000,-1000 1000,-1000 2000,-1000 1000,0 3000,1000 4000,3000l179000 402000 -78000 -608000c0,-2000 2000,-4000 4000,-5000 0,0 1000,0 1000,0 2000,0 4000,1000 4000,3000l221000 596000c4000,-19000 0,-33000 -6000,-52000 -6000,-25000 -16000,-59000 -14000,-121000 1000,-37000 12000,-67000 20000,-94000 6000,-18000 12000,-34000 13000,-49000 2000,-25000 -2000,-44000 -6000,-62000 -4000,-20000 -8000,-41000 -4000,-71000 4000,-21000 11000,-36000 19000,-53000 13000,-28000 28000,-60000 29000,-129000 0,-2000 1000,-4000 3000,-4000 0,-1000 1000,-1000 1000,-1000 2000,0 3000,1000 4000,2000 44000,51000 25000,168000 20000,191000 -7000,38000 10000,73000 26000,107000 10000,21000 20000,40000 24000,60000 6000,33000 1000,59000 -5000,84000 -8000,36000 -15000,69000 13000,120000 5000,8000 12000,27000 18000,54000l79000 -438000c0,-2000 2000,-4000 5000,-4000 0,0 0,0 0,1000 3000,0 4000,2000 4000,5000l-46000 437000 237000 -565000c1000,-2000 2000,-3000 4000,-3000 1000,0 1000,0 2000,0 2000,1000 3000,3000 3000,5000l-107000 627000c12000,-14000 16000,-28000 21000,-47000 6000,-25000 15000,-59000 48000,-112000 19000,-31000 43000,-53000 64000,-71000 15000,-13000 27000,-24000 36000,-36000 14000,-21000 20000,-39000 26000,-57000 6000,-19000 13000,-40000 32000,-63000 13000,-17000 27000,-26000 42000,-37000 26000,-18000 54000,-38000 90000,-98000 1000,-1000 2000,-2000 4000,-2000 0,0 1000,0 1000,0 2000,1000 3000,2000 4000,4000 12000,67000 -63000,158000 -78000,175000 -26000,30000 -29000,69000 -31000,107000 -2000,22000 -4000,44000 -10000,63000 -11000,32000 -29000,51000 -46000,70000 -25000,27000 -48000,53000 -49000,111000 0,9000 -3000,29000 -11000,55000l288000 -340000c0,-1000 2000,-1000 3000,-1000 1000,0 2000,0 3000,1000 2000,1000 2000,4000 1000,6000l-259000 356000 488000 -371000c1000,-1000 2000,-1000 3000,-1000 1000,0 2000,1000 3000,1000 2000,2000 2000,5000 0,7000l-406000 489000c20000,-6000 30000,-17000 44000,-31000 18000,-19000 43000,-44000 98000,-73000 32000,-17000 63000,-24000 91000,-29000 19000,-4000 35000,-8000 48000,-14000 24000,-11000 38000,-24000 51000,-36000 16000,-14000 32000,-28000 60000,-39000 20000,-8000 37000,-9000 55000,-11000 31000,-2000 66000,-5000 127000,-39000 0,0 1000,-1000 2000,-1000 1000,0 2000,1000 3000,1000 1000,2000 2000,4000 1000,6000 -22000,64000 -133000,105000 -155000,112000 -37000,13000 -59000,46000 -80000,77000 -13000,19000 -25000,37000 -40000,50000 -25000,22000 -50000,30000 -75000,38000 -35000,11000 -68000,22000 -97000,71000 -5000,8000 -18000,24000 -38000,42000l417000 -149000c0,-1000 1000,-1000 1000,-1000 2000,0 4000,2000 5000,3000 1000,3000 0,5000 -3000,6000l-402000 179000 608000 -77000c1000,0 1000,0 1000,0 2000,0 4000,1000 4000,3000 1000,2000 0,5000 -2000,6000l-596000 220000c6000,1000 10000,1000 16000,1000 11000,0 22000,-3000 36000,-6000 5000,-2000 9000,-3000 14000,-4000 19000,-5000 47000,-11000 90000,-11000 5000,0 11000,0 17000,0 37000,2000 67000,12000 94000,20000 18000,7000 34000,12000 49000,13000 5000,1000 9000,1000 14000,1000 19000,0 33000,-3000 47000,-6000 15000,-3000 29000,-7000 47000,-7000 8000,0 16000,1000 25000,2000 21000,4000 36000,11000 53000,19000 28000,13000 60000,28000 129000,29000 2000,0 4000,1000 4000,3000 1000,2000 1000,4000 -1000,5000 -22000,19000 -58000,28000 -107000,28000 -37000,0 -71000,-5000 -84000,-8000 -6000,-1000 -12000,-1000 -18000,-1000 -32000,0 -61000,14000 -89000,27000 -21000,10000 -40000,20000 -60000,24000 -10000,2000 -19000,3000 -30000,3000 -19000,0 -37000,-4000 -53000,-8000 -18000,-3000 -33000,-7000 -51000,-7000 -23000,0 -45000,6000 -70000,20000 -8000,5000 -27000,12000 -55000,18000l438000 79000c3000,1000 4000,3000 4000,6000 -1000,2000 -2000,4000 -5000,4000 0,0 0,0 0,0l-438000 -47000 565000 237000c3000,1000 4000,4000 3000,6000 0,2000 -2000,3000 -4000,3000 -1000,0 -1000,0 -1000,0l-625000 -107000c15000,14000 29000,18000 49000,23000 24000,6000 58000,15000 111000,48000 31000,19000 53000,43000 71000,64000 13000,14000 24000,27000 36000,35000 21000,15000 39000,21000 57000,26000 19000,7000 40000,14000 63000,32000 17000,14000 27000,28000 37000,43000 18000,25000 38000,54000 98000,90000 1000,1000 2000,3000 2000,4000 -1000,2000 -2000,4000 -4000,4000 -5000,1000 -10000,2000 -16000,2000 -65000,0 -144000,-66000 -159000,-79000 -30000,-26000 -69000,-29000 -107000,-32000 -22000,-1000 -44000,-3000 -63000,-9000 -32000,-11000 -51000,-29000 -70000,-46000 -28000,-25000 -53000,-48000 -111000,-49000 -9000,0 -30000,-3000 -57000,-12000l339000 287000c2000,1000 2000,4000 1000,6000 -1000,1000 -3000,2000 -4000,2000 -1000,0 -2000,0 -3000,-1000l-356000 -259000 371000 488000c2000,2000 2000,5000 0,6000 -1000,1000 -2000,2000 -3000,2000 -1000,0 -2000,-1000 -3000,-1000l-488000 -406000c6000,18000 16000,28000 30000,42000 18000,18000 43000,43000 73000,98000 17000,32000 23000,63000 29000,91000 4000,19000 7000,35000 13000,48000 11000,24000 24000,38000 36000,51000 14000,16000 29000,32000 39000,60000 8000,20000 9000,37000 11000,55000 3000,31000 6000,66000 40000,126000 0,2000 0,4000 -1000,6000 -1000,1000 -2000,1000 -3000,1000 -1000,0 -2000,0 -2000,0 -64000,-22000 -105000,-133000 -113000,-155000 -13000,-37000 -45000,-59000 -76000,-80000 -19000,-13000 -37000,-25000 -50000,-40000 -23000,-25000 -31000,-50000 -38000,-75000 -12000,-35000 -22000,-68000 -72000,-97000 -8000,-5000 -24000,-18000 -43000,-39000l151000 419000c1000,3000 -1000,5000 -3000,6000 -1000,0 -1000,0 -2000,0 -1000,0 -3000,-1000 -4000,-2000l-179000 -403000 78000 609000c0,2000 -2000,4000 -4000,5000 0,0 -1000,0 -1000,0 -2000,0 -4000,-1000 -4000,-3000l-221000 -596000c-4000,19000 0,33000 6000,52000 6000,25000 16000,59000 14000,121000 -1000,37000 -12000,67000 -20000,93000 -6000,19000 -12000,35000 -13000,49000 -2000,26000 2000,44000 6000,62000 4000,21000 8000,42000 4000,71000 -4000,21000 -11000,37000 -19000,53000 -13000,29000 -28000,60000 -29000,130000 0,2000 -1000,4000 -3000,4000 0,0 -1000,0 -1000,0 -2000,0 -3000,0 -4000,-1000 -44000,-51000 -25000,-168000 -20000,-191000 7000,-38000 -10000,-73000 -26000,-107000l-6000 -13000c13000,-106000 13000,-214000 1000,-320000 172000,7000 333000,-55000 454000,-161000 124000,-108000 207000,-263000 220000,-440000 28000,-359000 -241000,-672000 -600000,-700000 -140000,-10000 -273000,24000 -385000,91000 -112000,67000 -202000,168000 -257000,288000 -77000,-51000 -158000,-93000 -241000,-125000zm485000 1626000c-1000,2000 -2000,3000 -4000,3000 -1000,0 -1000,0 -2000,0 -2000,-1000 -3000,-3000 -3000,-6000l43000 -249000c4000,13000 11000,29000 27000,50000 34000,44000 -40000,153000 -61000,202000zm-74000 -357000c-12000,18000 -18000,34000 -23000,50000 -6000,20000 -13000,40000 -32000,64000 -13000,16000 -27000,26000 -42000,37000 -26000,17000 -54000,38000 -90000,97000 -1000,2000 -2000,2000 -4000,2000 0,0 -1000,0 -1000,0 -2000,0 -3000,-1000 -4000,-3000 -12000,-67000 63000,-158000 78000,-176000 26000,-29000 29000,-68000 31000,-106000 2000,-23000 4000,-44000 10000,-63000 2000,-6000 4000,-11000 6000,-15000l4000 -3000c2000,-2000 3000,-3000 3000,-4000 24000,24000 22000,44000 21000,60000 0,5000 -1000,9000 0,14000 3000,33000 23000,43000 43000,46000zm-175000 -93000l-84000 98000c0,1000 -2000,2000 -3000,2000 -1000,0 -2000,0 -3000,-1000 -2000,-2000 -2000,-4000 -1000,-6000l83000 -114000c1000,8000 4000,16000 8000,21000zm-4000 -132000l-316000 240000c-1000,0 -2000,1000 -3000,1000 -1000,0 -2000,-1000 -3000,-2000 -2000,-1000 -2000,-4000 0,-6000l312000 -377000c-1000,9000 -2000,17000 -2000,24000 -1000,39000 4000,70000 8000,95000l0 1000c2000,8000 3000,16000 4000,24000z"/>
   <path class="fil2" d="M1278000 1281000c9000,0 16000,8000 16000,17000 0,9000 -7000,16000 -16000,16000 -9000,0 -17000,-7000 -17000,-16000 0,-9000 8000,-17000 17000,-17000zm-169000 -232000c48000,31000 88000,9000 129000,-13000 10000,-6000 20000,-11000 30000,-16000l19000 -9000c35000,-19000 90000,-47000 131000,-5000 5000,6000 11000,3000 15000,-2000 15000,-29000 38000,-51000 63000,-64000 27000,-15000 57000,-20000 84000,-15000 29000,4000 63000,8000 93000,2000 31000,-6000 58000,-23000 71000,-58000 2000,-5000 0,-11000 -5000,-13000 -5000,-1000 -11000,1000 -13000,6000 -10000,28000 -32000,41000 -57000,46000 -25000,5000 -61000,2000 -86000,-3000 -31000,-5000 -66000,1000 -96000,18000 -26000,13000 -48000,34000 -65000,61000 -49000,-40000 -106000,-10000 -144000,10000l-18000 9000c-10000,4000 -21000,10000 -31000,16000 -36000,20000 -71000,39000 -110000,13000 -4000,-2000 -10000,-1000 -13000,3000 -3000,5000 -2000,11000 3000,14000zm519000 581000c-7000,5000 -16000,-40000 -17000,-44000l-3000 -13000c20000,-9000 23000,-18000 26000,-27000 1000,-3000 2000,-7000 6000,-11000 4000,-4000 10000,-8000 15000,-12000 13000,-10000 27000,-19000 32000,-39000 9000,-30000 -25000,-54000 -26000,-54000 -4000,-3000 -10000,-2000 -13000,2000 -3000,5000 -2000,11000 3000,14000 0,0 23000,16000 18000,33000 -4000,13000 -15000,21000 -25000,29000 -6000,4000 -12000,8000 -17000,13000 -7000,7000 -9000,13000 -11000,19000 -4000,10000 -14000,15000 -23000,18000 -17000,7000 -24000,2000 -30000,-3000 -5000,-3000 -8000,-6000 -14000,-8000 -4000,-2000 -9000,-1000 -15000,-1000 -7000,1000 -19000,2000 -37000,-1000 -33000,-6000 -8000,-50000 -8000,-50000 2000,-4000 0,-10000 -4000,-13000 -5000,-2000 -11000,0 -13000,5000 0,0 -40000,67000 22000,77000 20000,3000 33000,2000 42000,2000 8000,-1000 8000,-1000 15000,4000 9000,7000 19000,14000 39000,9000l2000 11000c4000,19000 9000,40000 17000,51000 8000,11000 18000,14000 30000,5000 4000,-3000 5000,-9000 2000,-14000 -3000,-4000 -9000,-5000 -13000,-2000zm14000 285000c10000,-3000 23000,-5000 36000,-4000 11000,1000 22000,3000 31000,7000 5000,3000 10000,1000 13000,-4000 6000,-12000 13000,-20000 19000,-27000 7000,-6000 14000,-10000 23000,-13000 4000,-2000 7000,-7000 5000,-12000 -2000,-5000 -7000,-8000 -12000,-6000 -11000,4000 -20000,9000 -29000,17000 -7000,6000 -13000,14000 -19000,24000 -9000,-3000 -20000,-5000 -30000,-5000 -16000,-1000 -31000,1000 -43000,5000 -5000,2000 -8000,7000 -6000,12000 1000,5000 7000,8000 12000,6000zm-25000 -724000c22000,-48000 51000,-67000 82000,-72000 33000,-5000 69000,5000 105000,14000 24000,6000 44000,4000 59000,-2000 13000,-6000 23000,-15000 31000,-24000 7000,-9000 11000,-19000 14000,-27000 1000,-6000 2000,-12000 -1000,-18000 -10000,-21000 -47000,-43000 -95000,-54000 -47000,-11000 -106000,-11000 -160000,11000l-7000 3000c-231000,106000 -58000,447000 -58000,448000 2000,5000 8000,7000 13000,5000 5000,-3000 7000,-9000 4000,-13000 0,-1000 -163000,-325000 49000,-422000l6000 -3000c51000,-21000 105000,-20000 149000,-10000 42000,9000 74000,27000 81000,43000l0 6000c-2000,5000 -5000,13000 -10000,19000 -6000,7000 -14000,14000 -23000,18000 -12000,5000 -28000,6000 -48000,1000 -37000,-9000 -75000,-19000 -112000,-14000 -37000,6000 -71000,28000 -97000,82000 -2000,5000 0,11000 5000,13000 5000,2000 11000,0 13000,-4000zm-440000 157000c22000,12000 53000,32000 96000,29000 -35000,-4000 -61000,-31000 -68000,-60000 -8000,9000 -18000,19000 -28000,31000zm153000 10000c26000,-16000 36000,-20000 66000,-30000 -11000,-17000 -28000,-32000 -43000,-40000 6000,26000 -1000,49000 -23000,70000zm-5000 -84000c-3000,-1000 -22000,-4000 -26000,-5000 23000,18000 19000,58000 -16000,65000 -25000,4000 -49000,-19000 -41000,-47000 -4000,2000 -17000,13000 -20000,15000 1000,27000 28000,58000 63000,55000 34000,-4000 63000,-44000 40000,-83000zm39000 382000c1000,-6000 2000,-12000 3000,-19000 1000,-13000 1000,-27000 -1000,-42000 -7000,-48000 -27000,-81000 -53000,-104000 -20000,-17000 -43000,-29000 -66000,-37000 44000,63000 83000,130000 117000,202000zm148000 108000l14000 6000c26000,11000 49000,22000 90000,19000l1000 0c9000,1000 10000,0 16000,-1000l10000 -3000c10000,-2000 20000,-4000 29000,-7000 9000,-3000 17000,-6000 24000,-11000l1000 0c44000,-21000 62000,-55000 75000,-81000l0 0c4000,-7000 7000,-13000 10000,-19000l-1000 1000c-14000,5000 -30000,11000 -43000,18000 -18000,10000 -26000,18000 -33000,26000 -10000,10000 -18000,19000 -41000,28000l0 0c-23000,7000 -36000,6000 -49000,4000 -11000,-1000 -22000,-3000 -42000,1000 -14000,3000 -26000,7000 -38000,11000l-1000 1000 0 0 0 0 0 0 -1000 0 0 0 0 0 0 0 -1000 0 0 0 0 1000 -1000 0 0 0 0 0 -1000 0 0 0 0 0 0 0 -1000 0 0 0 0 0 0 1000 -1000 0 0 0 0 0 0 0 -1000 0 0 0 0 0 -1000 0 0 1000 0 0 0 0 -1000 0 0 0 0 0 -1000 0 0 0 0 0 0 0 -1000 0 0 0 0 1000 -1000 0 0 0 0 0 0 0 -1000 0 0 0 0 0 0 0 -1000 0 0 0 0 1000 -1000 0 0 0 0 0 0 0 -1000 0 0 0 0 0 0 0 -1000 0 0 0 0 0 0 0 -1000 1000 0 0 0 0 0 0 -1000 0 0 0 0 0 -1000 0 0 0 0 0 -1000 0 0 0 0 1000 0 0 -1000 0 0 0 0 0zm59000 -53000c-9000,7000 -18000,15000 -30000,23000l0 0 1000 0 0 0 0 0 0 0 1000 -1000 0 0 0 0 0 0 0 0 1000 0 0 0 0 0 1000 0 0 0 0 0 0 0 0 0 1000 -1000 0 0 0 0 0 0 1000 0 0 0 0 0 0 0 1000 0 0 0 0 0 0 0 1000 0 0 0 0 -1000 0 0 1000 0 0 0 0 0 0 0 1000 0 0 0 0 0 1000 0 0 0 0 0 0 0 1000 -1000 0 0 0 0 0 0 1000 0 0 0 0 0 1000 0 0 0 0 0 0 0 1000 0 0 0 0 0 0 -1000 1000 0 0 0 0 0 0 0 1000 0 0 0 0 0 1000 0 0 0 0 0 0 0 1000 0 0 -1000 0 0 0 0 1000 0 0 0 0 0 1000 0 0 0 0 0 0 0 1000 0 0 0 0 0 1000 0 0 0 0 -1000 0 0 1000 0 0 0 0 0 1000 0 0 0 0 0 1000 0 0 0 0 0 0 0 0 0 1000 0 0 0 1000 0 0 -1000 0 0 0 0c23000,-4000 36000,-3000 48000,-1000 12000,1000 22000,2000 41000,-4000 18000,-7000 25000,-14000 33000,-23000 19000,-20000 39000,-30000 65000,-41000 -14000,1000 -27000,1000 -38000,1000 -13000,0 -23000,-1000 -29000,2000 -9000,3000 -11000,6000 -12000,9000l0 1000c-4000,8000 -8000,15000 -30000,22000 -22000,9000 -29000,5000 -37000,2000 -3000,-2000 -7000,-3000 -16000,0 -6000,2000 -14000,9000 -23000,17000zm185000 -54000l0 0 0 0zm-40000 -423000c15000,0 29000,-6000 39000,-17000 10000,-10000 16000,-25000 16000,-41000 0,-6000 -1000,-11000 -3000,-17000 -1000,-4000 -2000,-8000 -4000,-11000 -9000,-2000 -17000,-2000 -26000,-2000 9000,7000 14000,16000 14000,28000 0,10000 -4000,19000 -11000,26000 -7000,6000 -16000,10000 -26000,10000 -10000,0 -19000,-4000 -25000,-10000 -7000,-7000 -11000,-16000 -11000,-26000 0,-5000 1000,-10000 3000,-15000 -3000,2000 -6000,5000 -9000,7000 -4000,4000 -8000,8000 -12000,12000 0,15000 6000,29000 16000,39000 10000,11000 24000,17000 39000,17000zm-13000 -48000c3000,3000 7000,5000 12000,5000 5000,0 9000,-2000 12000,-5000 3000,-3000 5000,-8000 5000,-12000 0,-5000 -2000,-9000 -5000,-12000 -3000,-3000 -7000,-5000 -12000,-5000 -4000,0 -9000,1000 -12000,4000l0 1000c-3000,3000 -5000,7000 -5000,12000 0,4000 2000,9000 5000,12000zm65000 45000c-3000,3000 -6000,6000 -10000,9000 10000,-5000 19000,-11000 27000,-18000 21000,-17000 34000,-38000 42000,-59000 -12000,-4000 -26000,-9000 -41000,-12000l1000 3000c2000,7000 3000,15000 3000,22000 0,21000 -8000,41000 -22000,55000zm-55000 22000c-20000,0 -37000,-9000 -50000,-22000 -8000,-9000 -14000,-19000 -18000,-30000 -2000,3000 -3000,7000 -5000,10000 -8000,18000 -12000,37000 -12000,55000 11000,-8000 24000,-8000 43000,-9000 10000,-1000 23000,-1000 38000,-3000l4000 -1000zm-307000 509000l1000 0 22000 3000c11000,1000 22000,2000 28000,2000 26000,5000 44000,13000 62000,21000 27000,12000 52000,23000 97000,21000 13000,0 14000,0 23000,-3000l8000 -2000c11000,-2000 21000,-5000 31000,-8000 10000,-3000 19000,-7000 27000,-12000 50000,-24000 70000,-61000 84000,-89000l0 -1000c6000,-10000 11000,-19000 16000,-25000 13000,-13000 28000,-31000 34000,-39000l1000 0 0 0 0 -1000 0 0 1000 -1000c9000,-6000 23000,-20000 36000,-35000 11000,-12000 22000,-26000 30000,-37000 50000,15000 95000,11000 95000,11000 6000,-1000 10000,-6000 9000,-11000 0,-5000 -5000,-9000 -11000,-9000 0,0 -160000,17000 -200000,-124000 -37000,-137000 72000,-207000 125000,-241000 13000,-9000 23000,-15000 28000,-21000 4000,-3000 4000,-8000 2000,-12000 -3000,-5000 -9000,-6000 -14000,-3000 -48000,33000 -92000,6000 -96000,3000 -1000,0 -2000,-1000 -3000,-1000 -22000,-9000 -57000,-19000 -92000,-21000 -15000,-1000 -34000,-1000 -49000,4000 -16000,4000 -32000,13000 -45000,24000 -14000,13000 -25000,30000 -34000,49000 -12000,28000 -17000,60000 -10000,85000 1000,3000 2000,5000 4000,6000 5000,3000 11000,2000 14000,-3000 9000,-15000 20000,-15000 42000,-16000 10000,0 23000,-1000 39000,-3000 37000,-5000 65000,-18000 87000,-36000 23000,-19000 38000,-43000 47000,-67000 10000,5000 26000,11000 46000,11000 -60000,41000 -146000,115000 -109000,247000 19000,68000 63000,103000 106000,121000 -7000,10000 -16000,21000 -25000,31000 -13000,14000 -26000,27000 -34000,33000 -46000,27000 -84000,26000 -111000,26000 -14000,-1000 -26000,-1000 -35000,3000 -17000,6000 -20000,13000 -24000,20000 -2000,3000 -3000,7000 -17000,12000l-2000 0c-14000,6000 -18000,4000 -22000,2000 -7000,-3000 -14000,-6000 -31000,0 -9000,3000 -18000,11000 -29000,20000 -20000,18000 -49000,43000 -101000,52000l-1000 0c-5000,0 -14000,-1000 -25000,-2000 -10000,-1000 -21000,-3000 -32000,-5000 -7000,-20000 -15000,-40000 -24000,-59000 5000,-13000 9000,-27000 11000,-43000 2000,-14000 1000,-30000 -1000,-47000 -8000,-53000 -31000,-90000 -60000,-115000 -29000,-25000 -63000,-39000 -95000,-48000l-1000 0c-17000,-22000 -34000,-42000 -51000,-61000 22000,13000 54000,26000 94000,26000 33000,-3000 51000,-9000 79000,-24000 38000,-20000 38000,-21000 47000,-21000 8000,0 12000,5000 17000,5000 5000,0 10000,-5000 10000,-10000 -2000,-23000 -39000,-63000 -62000,-74000 -23000,-12000 -50000,-23000 -78000,-20000 -59000,9000 -104000,59000 -129000,94000l-8000 -9000c33000,-14000 65000,-68000 110000,-89000 29000,-14000 67000,-13000 110000,15000 4000,3000 11000,1000 14000,-3000 2000,-5000 1000,-11000 -3000,-14000 -33000,-21000 -70000,-32000 -101000,-25000 -49000,11000 -83000,48000 -113000,80000 -10000,12000 -23000,19000 -31000,21000 -12000,-13000 -24000,-26000 -36000,-38000 -3000,-4000 -7000,-8000 -10000,-11000 13000,-24000 39000,-54000 74000,-79000 27000,-19000 59000,-34000 93000,-39000 31000,-4000 71000,3000 95000,11000 26000,10000 49000,27000 68000,47000 3000,4000 9000,5000 13000,1000 4000,-4000 5000,-10000 1000,-14000 -21000,-22000 -46000,-41000 -76000,-52000 -26000,-10000 -69000,-16000 -103000,-12000 -38000,5000 -73000,22000 -103000,42000 -34000,25000 -62000,56000 -76000,82000l0 0 -1000 -1000 -1000 -1000 -1000 -1000 -8000 -7000 -1000 -1000 0 0 -1000 0 -1000 -1000 0 -1000c-19000,-17000 -38000,-33000 -58000,-49000 -27000,-22000 -54000,-43000 -83000,-62000 54000,-117000 140000,-215000 251000,-282000 112000,-67000 242000,-98000 372000,-88000 168000,13000 322000,91000 431000,218000 109000,128000 163000,292000 150000,459000 -12000,165000 -88000,317000 -213000,426000 -120000,106000 -279000,162000 -439000,156000 -3000,0 -57000,-236000 -65000,-261000z"/>
  </g>
 </g>
</svg>
