<?xml version="1.0" standalone="no"?><!-- Generator: Gravit.io --><svg xmlns="http://www.w3.org/2000/svg" xmlns:xlink="http://www.w3.org/1999/xlink" style="isolation:isolate" viewBox="0 0 50 50" width="50" height="50"><defs><clipPath id="_clipPath_N1g1fTpkQGWeelGUtXYPDUqFeodOiRQL"><rect width="50" height="50"/></clipPath></defs><g clip-path="url(#_clipPath_N1g1fTpkQGWeelGUtXYPDUqFeodOiRQL)"><g><path d=" M 0 0 L 50 0 L 50 50 L 0 50 L 0 0 Z  M 24.68 19.59 C 24.7 19.7 24.74 19.82 24.74 19.93 C 21.85 19.87 18.72 18.78 16.21 17.42 C 14.25 16.21 13.15 15.29 11.53 13.62 C 11.44 13.5 11 12.98 10.92 12.92 C 10.39 13.71 10.01 15.06 10.01 16.06 C 10.01 16.86 10.08 17.6 10.31 18.3 C 10.64 19.26 11.13 20.19 11.85 20.91 C 12.19 21.24 12.54 21.54 12.92 21.83 C 12.97 21.87 12.94 21.85 12.96 21.87 C 12.43 21.87 11.73 21.73 11.32 21.6 C 10.89 21.47 10.27 21.12 9.96 21.05 C 9.96 23.04 10.83 25.12 12.44 26.34 C 12.98 26.75 14.48 27.66 15.25 27.68 L 15.25 27.73 C 14.96 27.74 14.05 28.05 12.84 27.89 C 12.67 27.86 12.45 27.82 12.31 27.82 C 12.65 28.54 12.74 28.94 13.22 29.63 C 14.39 31.33 16.44 32.48 18.55 32.48 C 18.16 33.01 15.79 34.18 15.08 34.45 C 13.03 35.24 11.55 35.29 9.39 35.31 C 9.13 35.32 8.91 35.26 8.65 35.26 C 8.82 35.49 10.83 36.47 11.16 36.62 C 14.4 38.08 18.42 38.67 21.94 38.07 C 25.09 37.54 28.4 36.37 30.87 34.21 C 32.73 32.6 34.15 31.04 35.4 28.88 C 36.5 26.87 37.15 25.2 37.65 22.95 C 37.97 21.55 38.05 20.16 38.05 18.7 C 38.05 18.53 38.02 18.47 38.02 18.3 C 38.23 18.24 39.2 17.37 39.42 17.16 C 40.01 16.57 40.5 16.04 41 15.36 C 41.13 15.2 41.25 15.04 41.35 14.86 C 41.17 14.9 40.35 15.25 40.06 15.34 C 39.52 15.52 38.18 15.87 37.61 15.87 C 37.68 15.78 38.17 15.47 38.32 15.34 C 39.23 14.6 39.97 13.6 40.37 12.49 C 40.4 12.4 40.44 12.27 40.48 12.19 C 40.34 12.22 39.68 12.62 39.53 12.69 C 38.68 13.12 37.76 13.43 36.83 13.67 C 36.2 13.82 36.29 13.88 36.01 13.6 C 35.66 13.25 35.24 12.96 34.83 12.68 C 33.52 11.95 32.59 11.7 31.07 11.7 C 29.58 11.7 27.78 12.42 26.72 13.49 C 25.1 15.13 24.22 17.19 24.68 19.59 Z " fill-rule="evenodd" fill="rgb(255,255,255)"/></g></g></svg>